<svg xmlns="http://www.w3.org/2000/svg" xmlns:xlink="http://www.w3.org/1999/xlink" width="500" zoomAndPan="magnify" viewBox="0 0 375 374.999991" height="500" preserveAspectRatio="xMidYMid meet" version="1.0"><defs><g/></defs><g fill="#737373" fill-opacity="1"><g transform="translate(12.621113, 207.706627)"><g><path d="M 33.78125 -32.941406 L 33.78125 -48.851562 L 3.503906 -48.851562 L 3.503906 0 L 33.78125 0 L 33.78125 -15.839844 L 19.765625 -15.839844 L 19.765625 -17.734375 L 26.84375 -17.734375 L 26.84375 -31.121094 L 19.765625 -31.121094 L 19.765625 -32.941406 Z M 33.78125 -32.941406 "/></g></g></g><g fill="#737373" fill-opacity="1"><g transform="translate(49.976152, 207.706627)"><g><path d="M 21.65625 -48.851562 L 21.65625 -20.816406 L 37.917969 1.402344 L 37.917969 -48.851562 Z M 3.503906 0 L 19.765625 0 L 19.765625 -26.632812 L 3.503906 -48.851562 Z M 3.503906 0 "/></g></g></g><g fill="#737373" fill-opacity="1"><g transform="translate(91.396098, 207.706627)"><g><path d="M 27.195312 -16.539062 C 22.847656 -16.539062 19.273438 -20.046875 19.273438 -24.390625 C 19.273438 -28.804688 22.847656 -32.3125 27.195312 -32.3125 C 30.839844 -32.3125 33.851562 -29.859375 34.765625 -26.492188 L 52.917969 -26.492188 C 51.867188 -39.808594 40.722656 -50.253906 27.195312 -50.253906 C 12.894531 -50.253906 1.402344 -38.6875 1.402344 -24.390625 C 1.402344 -10.164062 12.894531 1.402344 27.195312 1.402344 C 40.722656 1.402344 51.867188 -9.042969 52.917969 -22.359375 L 34.765625 -22.359375 C 33.851562 -18.992188 30.839844 -16.539062 27.195312 -16.539062 Z M 27.195312 -16.539062 "/></g></g></g><g fill="#737373" fill-opacity="1"><g transform="translate(145.781677, 207.706627)"><g><path d="M 19.765625 0 L 19.765625 -48.851562 L 3.503906 -48.851562 L 3.503906 0 Z M 25.300781 -22.5 C 25.511719 -22.570312 25.652344 -22.570312 25.863281 -22.640625 C 31.960938 -24.320312 35.816406 -29.296875 35.816406 -35.535156 C 35.816406 -42.894531 29.859375 -48.851562 22.5 -48.851562 L 21.585938 -48.851562 L 21.585938 0.0703125 L 37.496094 0.0703125 Z M 25.300781 -22.5 "/></g></g></g><g fill="#737373" fill-opacity="1"><g transform="translate(184.748669, 207.706627)"><g><path d="M 45.347656 -48.851562 L 24.742188 -48.851562 L 24.742188 -26.214844 L 21.9375 -26.214844 L 21.9375 -48.851562 L 1.402344 -48.851562 L 15.210938 -16.609375 L 15.210938 0 L 31.46875 0 L 31.46875 -16.609375 Z M 45.347656 -48.851562 "/></g></g></g><g fill="#737373" fill-opacity="1"><g transform="translate(231.565121, 207.706627)"><g><path d="M 19.765625 0 L 19.765625 -48.851562 L 3.503906 -48.851562 L 3.503906 0 Z M 22.707031 -48.851562 C 22.707031 -48.851562 22.640625 -48.851562 22.640625 -48.851562 L 22.289062 -48.851562 L 22.289062 -16.539062 C 23.898438 -16.75 25.371094 -17.03125 26.703125 -17.382812 C 34.0625 -19.34375 38.6875 -25.371094 38.6875 -32.871094 C 38.6875 -41.703125 31.539062 -48.851562 22.707031 -48.851562 Z M 22.707031 -48.851562 "/></g></g></g><g fill="#737373" fill-opacity="1"><g transform="translate(272.424398, 207.706627)"><g><path d="M 33.992188 -48.851562 L 1.402344 -48.851562 L 1.402344 -32.941406 L 9.53125 -32.941406 L 9.53125 0 L 25.792969 0 L 25.792969 -32.941406 L 33.992188 -32.941406 Z M 33.992188 -48.851562 "/></g></g></g><g fill="#737373" fill-opacity="1"><g transform="translate(307.887169, 207.706627)"><g><path d="M 27.195312 -50.253906 C 12.894531 -50.253906 1.402344 -38.6875 1.402344 -24.390625 C 1.402344 -10.164062 12.894531 1.402344 27.195312 1.402344 C 41.421875 1.402344 52.988281 -10.164062 52.988281 -24.390625 C 52.988281 -38.6875 41.421875 -50.253906 27.195312 -50.253906 Z M 27.195312 -16.539062 C 22.847656 -16.539062 19.273438 -20.046875 19.273438 -24.390625 C 19.273438 -28.804688 22.847656 -32.3125 27.195312 -32.3125 C 31.539062 -32.3125 35.042969 -28.804688 35.042969 -24.390625 C 35.042969 -20.046875 31.539062 -16.539062 27.195312 -16.539062 Z M 27.195312 -16.539062 "/></g></g></g><g fill="#ffbd59" fill-opacity="1"><g transform="translate(106.941035, 212.965415)"><g><path d="M 62.554688 -50.253906 C 63.929688 -51.792969 65.304688 -53.371094 66.195312 -55.230469 C 67.371094 -57.660156 66.84375 -59.519531 64.617188 -60.976562 C 62.230469 -62.472656 59.640625 -63 56.890625 -62.71875 C 54.582031 -62.433594 52.398438 -61.785156 50.253906 -60.976562 C 33.785156 -54.828125 19.261719 -45.480469 6.3125 -33.664062 C 3.882812 -31.4375 1.617188 -29.050781 0 -26.140625 C -1.496094 -23.550781 -0.890625 -21.40625 1.578125 -19.746094 C 3.277344 -18.652344 5.179688 -18.046875 7.160156 -17.683594 C 11.128906 -16.996094 15.09375 -17.398438 19.058594 -17.804688 C 24.722656 -18.371094 30.386719 -19.140625 36.457031 -19.261719 C 38.4375 -19.261719 40.785156 -19.21875 43.132812 -19.015625 C 44.023438 -18.9375 44.023438 -18.652344 43.617188 -18.003906 C 43.011719 -16.953125 42.285156 -16.0625 41.472656 -15.171875 C 38.964844 -12.261719 36.292969 -9.46875 33.90625 -6.433594 C 32.167969 -4.289062 30.386719 -2.226562 29.171875 0.285156 C 28.605469 1.539062 28.808594 2.144531 29.984375 2.792969 C 31.15625 3.4375 31.761719 3.316406 32.492188 2.265625 C 32.574219 2.105469 32.695312 1.984375 32.816406 1.820312 C 34.515625 -0.121094 36.253906 -1.984375 38.074219 -3.804688 C 40.988281 -6.714844 44.105469 -9.386719 46.816406 -12.460938 C 47.746094 -13.472656 48.636719 -14.527344 49.242188 -15.78125 C 50.011719 -17.398438 49.726562 -18.695312 48.273438 -19.746094 C 47.503906 -20.394531 46.574219 -20.796875 45.601562 -21.082031 C 43.011719 -21.929688 40.339844 -22.050781 37.628906 -22.214844 C 30.507812 -22.617188 23.46875 -21.851562 16.386719 -21.203125 C 13.230469 -20.917969 10.074219 -20.554688 6.917969 -20.878906 C 5.828125 -21 5.664062 -21.203125 5.949219 -22.292969 C 6.148438 -23.226562 6.675781 -24.074219 7.242188 -24.84375 C 8.984375 -27.230469 11.003906 -29.375 13.148438 -31.398438 C 19.949219 -37.710938 27.472656 -43.050781 35.445312 -47.785156 C 42.648438 -52.074219 50.214844 -55.71875 58.265625 -58.144531 C 58.792969 -58.304688 59.519531 -58.75 59.84375 -58.386719 C 60.167969 -57.941406 59.722656 -57.253906 59.4375 -56.726562 C 58.347656 -54.382812 56.808594 -52.316406 55.109375 -50.417969 C 52.722656 -47.707031 50.253906 -45.074219 47.867188 -42.40625 C 46.613281 -41.027344 45.398438 -39.613281 44.628906 -37.914062 C 44.347656 -37.265625 44.144531 -36.578125 44.304688 -35.808594 C 44.507812 -34.917969 45.195312 -34.515625 46.046875 -34.351562 C 46.894531 -34.148438 46.894531 -34.878906 47.140625 -35.324219 C 47.542969 -36.09375 48.070312 -36.78125 48.675781 -37.347656 C 49.648438 -38.316406 50.660156 -39.25 51.671875 -40.179688 C 55.351562 -43.496094 59.195312 -46.652344 62.554688 -50.253906 Z M 62.554688 -50.253906 "/></g></g></g><g fill="#ffbd59" fill-opacity="1"><g transform="translate(164.66544, 212.965415)"><g><path d="M 13.515625 -16.144531 C 15.132812 -15.171875 16.792969 -14.890625 18.613281 -15.660156 C 19.949219 -16.226562 21.203125 -16.914062 22.375 -17.761719 C 25.894531 -20.230469 29.292969 -22.902344 32.410156 -25.894531 C 33.21875 -26.625 33.140625 -26.988281 32.167969 -27.515625 C 31.074219 -28.082031 30.226562 -27.515625 29.335938 -27.070312 C 27.070312 -25.816406 24.964844 -24.277344 22.78125 -22.902344 C 20.714844 -21.605469 18.652344 -20.273438 16.46875 -19.140625 C 16.347656 -19.625 16.550781 -19.988281 16.671875 -20.351562 C 17.238281 -21.890625 17.804688 -23.429688 18.410156 -24.925781 C 18.695312 -25.652344 18.492188 -26.179688 17.925781 -26.625 C 17.035156 -27.351562 16.023438 -27.71875 14.769531 -27.472656 C 15.171875 -28.40625 15.578125 -29.214844 15.902344 -30.0625 C 16.265625 -30.996094 16.105469 -31.882812 15.335938 -32.53125 C 13.796875 -33.828125 12.058594 -34.472656 10.035156 -33.949219 C 8.496094 -33.542969 7.160156 -32.695312 5.949219 -31.722656 C 2.226562 -28.808594 -0.808594 -25.289062 -3.316406 -21.324219 C -4.207031 -19.90625 -4.9375 -18.449219 -5.300781 -16.792969 C -5.746094 -14.890625 -5.300781 -13.59375 -3.640625 -12.503906 C -1.578125 -11.085938 0.527344 -10.722656 2.832031 -12.179688 C 5.785156 -14.082031 8.417969 -16.386719 11.046875 -18.695312 C 11.328125 -18.9375 11.574219 -19.179688 12.058594 -19.582031 C 11.816406 -17.964844 12.339844 -16.871094 13.515625 -16.144531 Z M 2.347656 -17.359375 C 2.304688 -17.316406 2.265625 -17.359375 2.0625 -17.398438 C 4.894531 -22.132812 8.171875 -26.460938 12.542969 -30.144531 C 12.542969 -29.09375 12.503906 -28.285156 12.21875 -27.59375 C 11.9375 -26.90625 12.179688 -26.542969 12.707031 -26.300781 C 13.070312 -26.140625 13.230469 -25.976562 12.867188 -25.652344 C 9.550781 -22.660156 6.109375 -19.785156 2.347656 -17.359375 Z M 2.347656 -17.359375 "/></g></g></g><g fill="#ffbd59" fill-opacity="1"><g transform="translate(192.900654, 212.965415)"><g><path d="M 21.242188 -27.070312 C 21.527344 -27.191406 22.011719 -27.351562 21.851562 -27.757812 C 21.726562 -28.160156 21.242188 -28.324219 20.839844 -28.285156 C 20.554688 -28.242188 20.273438 -28.160156 20.027344 -28.039062 C 16.304688 -26.503906 12.625 -24.84375 8.984375 -23.105469 C 7.363281 -22.375 5.785156 -21.566406 4.167969 -20.796875 C 4.085938 -21.242188 4.289062 -21.484375 4.410156 -21.769531 C 5.503906 -24.117188 6.554688 -26.503906 7.726562 -28.808594 C 11.046875 -35.726562 14.082031 -42.769531 17.640625 -49.566406 C 17.804688 -49.890625 18.003906 -50.214844 17.761719 -50.617188 C 16.953125 -51.871094 14.972656 -52.15625 13.960938 -51.105469 C 12.261719 -49.285156 11.003906 -47.140625 9.792969 -44.996094 C 5.664062 -37.386719 1.738281 -29.699219 -1.902344 -21.851562 C -3.640625 -18.046875 -5.339844 -14.203125 -6.148438 -10.074219 C -6.636719 -7.566406 -6.878906 -5.015625 -6.109375 -2.550781 C -5.058594 0.851562 -0.851562 2.144531 1.78125 -0.160156 C 4.773438 -2.832031 6.796875 -6.191406 7.890625 -10.035156 C 8.738281 -13.070312 7.40625 -15.617188 4.449219 -16.914062 C 4.25 -16.996094 3.964844 -16.953125 3.882812 -17.359375 C 6.675781 -18.9375 9.429688 -20.554688 12.21875 -22.09375 C 15.214844 -23.75 18.25 -25.371094 21.242188 -27.070312 Z M 4.570312 -14.726562 C 5.140625 -13.714844 5.21875 -12.542969 4.9375 -11.449219 C 4.003906 -7.808594 1.820312 -4.976562 -0.972656 -2.550781 C -1.292969 -2.265625 -1.578125 -2.265625 -1.578125 -2.792969 C -1.578125 -3.035156 -1.578125 -3.277344 -1.578125 -3.480469 C -1.335938 -7.484375 -0.0390625 -11.128906 1.417969 -14.726562 C 1.78125 -15.699219 2.792969 -15.214844 3.480469 -15.417969 C 4.003906 -15.578125 4.328125 -15.171875 4.570312 -14.726562 Z M 4.570312 -14.726562 "/></g></g></g><g fill="#ffbd59" fill-opacity="1"><g transform="translate(212.034255, 212.965415)"><g><path d="M 11.652344 -22.214844 C 13.554688 -24.519531 14.851562 -27.230469 15.539062 -30.144531 C 15.941406 -31.925781 15.375 -33.421875 13.839844 -34.515625 C 11.492188 -36.171875 9.023438 -36.132812 6.796875 -34.3125 C 5.261719 -33.058594 3.964844 -31.640625 2.871094 -30.023438 C 0.484375 -26.542969 -1.699219 -22.902344 -2.671875 -18.734375 C -3.15625 -16.628906 -2.710938 -14.726562 -1.011719 -13.273438 C 0.808594 -11.773438 2.871094 -11.003906 5.261719 -11.207031 C 7.242188 -11.371094 9.0625 -12.179688 10.804688 -13.109375 C 17.683594 -16.710938 23.871094 -21.324219 30.386719 -25.53125 C 30.914062 -25.855469 30.792969 -26.140625 30.386719 -26.460938 C 29.660156 -27.109375 28.851562 -27.191406 27.917969 -26.949219 C 27.109375 -26.746094 26.339844 -26.421875 25.574219 -26.015625 C 20.878906 -23.507812 16.183594 -20.960938 11.449219 -18.449219 C 8.78125 -17.035156 6.148438 -15.578125 3.277344 -14.6875 C 2.265625 -14.363281 2.105469 -14.484375 2.0625 -15.578125 C 1.984375 -17.761719 2.792969 -19.746094 3.683594 -21.726562 C 7.6875 -18.734375 9.871094 -20.070312 11.652344 -22.214844 Z M 5.460938 -25.046875 C 7.039062 -27.917969 8.902344 -30.589844 11.492188 -32.652344 C 11.53125 -32.695312 11.652344 -32.695312 11.734375 -32.734375 C 11.894531 -32.371094 11.773438 -32.003906 11.695312 -31.683594 C 10.804688 -28.6875 9.347656 -26.058594 7.082031 -23.871094 C 6.839844 -23.628906 6.515625 -23.105469 6.191406 -23.46875 C 5.828125 -23.871094 5.140625 -24.4375 5.460938 -25.046875 Z M 5.460938 -25.046875 "/></g></g></g><g fill="#737373" fill-opacity="1"><g transform="translate(99.59304, 208.312047)"><g><path d="M 41.351562 0.0703125 L 27.195312 -48.851562 L 14.859375 -48.851562 L 0.699219 0.0703125 L 16.402344 0.0703125 L 21.027344 -15.980469 L 25.652344 0.0703125 Z M 41.351562 0.0703125 "/></g></g></g><g fill="#ffbd59" fill-opacity="1"><g transform="translate(117.271564, 234.728891)"><g><path d="M 0.191406 -5.871094 C -0.207031 -5.417969 -0.152344 -5.0625 0.359375 -4.753906 C 0.671875 -4.558594 1.007812 -4.464844 1.359375 -4.425781 C 2.328125 -4.3125 3.289062 -4.414062 4.238281 -4.550781 C 5.398438 -4.71875 6.550781 -4.910156 7.710938 -5.078125 C 7.921875 -5.113281 8.144531 -5.191406 8.34375 -5.007812 C 8.359375 -4.984375 8.40625 -4.984375 8.449219 -4.976562 C 8.503906 -4.976562 8.566406 -4.96875 8.601562 -5.039062 C 8.632812 -5.113281 8.609375 -5.167969 8.566406 -5.207031 C 8.480469 -5.304688 8.375 -5.351562 8.265625 -5.390625 C 7.894531 -5.511719 7.503906 -5.503906 7.128906 -5.488281 C 6.167969 -5.449219 5.222656 -5.328125 4.28125 -5.230469 C 3.335938 -5.128906 2.390625 -5.046875 1.449219 -5.089844 C 1.382812 -5.089844 1.304688 -5.054688 1.28125 -5.128906 C 1.257812 -5.183594 1.320312 -5.238281 1.351562 -5.289062 C 1.511719 -5.511719 1.710938 -5.695312 1.921875 -5.871094 C 2.503906 -6.34375 3.152344 -6.71875 3.816406 -7.070312 C 6.207031 -8.34375 8.726562 -9.320312 11.320312 -10.097656 C 13.550781 -10.769531 15.816406 -11.296875 18.160156 -11.425781 C 18.625 -11.449219 19.097656 -11.464844 19.558594 -11.367188 C 19.785156 -11.328125 19.894531 -11.191406 19.9375 -10.984375 C 19.976562 -10.761719 19.902344 -10.558594 19.792969 -10.367188 C 19.617188 -10.039062 19.359375 -9.769531 19.097656 -9.503906 C 18.25 -8.703125 17.296875 -8.046875 16.320312 -7.433594 C 14.902344 -6.535156 13.417969 -5.777344 11.953125 -4.984375 C 11.800781 -4.902344 11.65625 -4.824219 11.511719 -4.742188 C 11.503906 -4.761719 11.488281 -4.769531 11.480469 -4.785156 C 11.519531 -4.855469 11.558594 -4.929688 11.609375 -5 C 12.375 -6.199219 13.144531 -7.398438 13.902344 -8.601562 C 14.113281 -8.929688 14.320312 -9.257812 14.519531 -9.59375 C 14.574219 -9.671875 14.625 -9.761719 14.550781 -9.863281 C 14.390625 -10.113281 13.945312 -10.167969 13.742188 -9.945312 C 13.566406 -9.742188 13.390625 -9.542969 13.230469 -9.328125 C 12 -7.6875 10.894531 -5.953125 9.863281 -4.175781 C 9.679688 -3.871094 9.496094 -3.585938 9.160156 -3.425781 C 8.96875 -3.335938 8.976562 -3.257812 9.136719 -3.121094 C 9.214844 -3.054688 9.214844 -3.007812 9.175781 -2.929688 C 9.03125 -2.640625 8.894531 -2.359375 8.769531 -2.070312 C 8.585938 -1.679688 8.398438 -1.289062 8.3125 -0.863281 C 8.273438 -0.640625 8.289062 -0.433594 8.496094 -0.296875 C 8.710938 -0.152344 8.945312 -0.0976562 9.191406 -0.207031 C 9.3125 -0.265625 9.320312 -0.34375 9.214844 -0.398438 C 9.046875 -0.480469 9.089844 -0.585938 9.152344 -0.703125 C 9.574219 -1.585938 10.0625 -2.414062 10.550781 -3.265625 C 10.59375 -3.335938 10.65625 -3.375 10.734375 -3.40625 C 11.496094 -3.785156 12.257812 -4.152344 13.015625 -4.535156 C 14.792969 -5.441406 16.558594 -6.351562 18.214844 -7.472656 C 18.96875 -7.976562 19.679688 -8.519531 20.3125 -9.175781 C 20.574219 -9.449219 20.800781 -9.734375 20.945312 -10.089844 C 21.121094 -10.535156 21.039062 -10.945312 20.695312 -11.28125 C 20.503906 -11.472656 20.265625 -11.609375 20.007812 -11.703125 C 19.457031 -11.929688 18.878906 -11.96875 18.296875 -11.96875 C 16.511719 -11.945312 14.761719 -11.664062 13.023438 -11.273438 C 10.3125 -10.664062 7.6875 -9.777344 5.121094 -8.71875 C 3.855469 -8.191406 2.601562 -7.625 1.441406 -6.886719 C 0.984375 -6.59375 0.542969 -6.28125 0.191406 -5.871094 Z M 0.191406 -5.871094 "/></g></g></g><g fill="#ffbd59" fill-opacity="1"><g transform="translate(135.391746, 234.728891)"><g><path d="M 3.601562 -5.609375 C 3.558594 -5.617188 3.519531 -5.617188 3.488281 -5.609375 C 3.230469 -5.542969 3 -5.609375 2.777344 -5.726562 C 2.480469 -5.894531 2.183594 -5.878906 1.894531 -5.695312 C 1.800781 -5.640625 1.703125 -5.574219 1.558594 -5.488281 C 1.648438 -5.640625 1.703125 -5.753906 1.761719 -5.855469 C 1.878906 -6.078125 1.847656 -6.199219 1.632812 -6.359375 C 1.367188 -6.558594 1.183594 -6.574219 1.007812 -6.398438 C 0.832031 -6.230469 0.679688 -6.03125 0.535156 -5.832031 C 0.015625 -5.078125 -0.480469 -4.320312 -0.800781 -3.464844 C -0.960938 -3.039062 -0.824219 -2.769531 -0.390625 -2.609375 C -0.230469 -2.550781 -0.113281 -2.566406 0 -2.726562 C 0.359375 -3.28125 0.753906 -3.800781 1.207031 -4.28125 C 1.550781 -4.648438 1.894531 -5.007812 2.328125 -5.273438 C 2.535156 -5.398438 2.734375 -5.457031 2.976562 -5.328125 C 3.183594 -5.222656 3.414062 -5.183594 3.640625 -5.28125 C 3.710938 -5.3125 3.839844 -5.320312 3.832031 -5.425781 C 3.816406 -5.527344 3.703125 -5.585938 3.601562 -5.609375 Z M 3.601562 -5.609375 "/></g></g></g><g fill="#ffbd59" fill-opacity="1"><g transform="translate(139.511784, 234.728891)"><g><path d="M 1.070312 -2.6875 C 1.382812 -2.816406 1.664062 -2.992188 1.945312 -3.183594 C 2.824219 -3.800781 3.671875 -4.457031 4.574219 -5.046875 C 4.640625 -5.089844 4.742188 -5.113281 4.734375 -5.207031 C 4.726562 -5.320312 4.625 -5.367188 4.535156 -5.417969 C 4.449219 -5.457031 4.359375 -5.449219 4.265625 -5.433594 C 4.007812 -5.367188 3.777344 -5.257812 3.542969 -5.136719 C 2.742188 -4.703125 1.945312 -4.257812 1.136719 -3.824219 C 1.054688 -3.777344 0.976562 -3.734375 0.863281 -3.679688 C 0.894531 -3.792969 0.902344 -3.863281 0.929688 -3.9375 C 1.078125 -4.40625 1.230469 -4.886719 1.382812 -5.367188 C 1.503906 -5.753906 1.441406 -5.886719 1.089844 -6.078125 C 0.816406 -6.222656 0.695312 -6.199219 0.527344 -5.953125 C 0.0625 -5.28125 -0.207031 -4.535156 -0.304688 -3.734375 C -0.398438 -3.023438 0.398438 -2.425781 1.070312 -2.6875 Z M 2.574219 -7.839844 C 2.511719 -7.832031 2.441406 -7.832031 2.375 -7.824219 C 1.9375 -7.777344 1.527344 -7.648438 1.144531 -7.433594 C 1.054688 -7.382812 0.945312 -7.320312 0.992188 -7.175781 C 1.070312 -6.929688 1.496094 -6.753906 1.726562 -6.878906 C 2.160156 -7.121094 2.59375 -7.34375 3.070312 -7.449219 C 3.191406 -7.472656 3.191406 -7.535156 3.128906 -7.617188 C 2.992188 -7.800781 2.800781 -7.871094 2.574219 -7.839844 Z M 2.574219 -7.839844 "/></g></g></g><g fill="#ffbd59" fill-opacity="1"><g transform="translate(143.44782, 234.728891)"><g><path d="M 4.894531 -7.496094 C 4.792969 -7.59375 4.679688 -7.632812 4.542969 -7.550781 C 4.398438 -7.472656 4.273438 -7.367188 4.152344 -7.265625 C 3.34375 -6.542969 2.566406 -5.792969 1.839844 -4.992188 C 1.398438 -4.511719 0.984375 -4.015625 0.535156 -3.527344 C 0.617188 -3.832031 0.695312 -4.136719 0.785156 -4.441406 C 0.929688 -4.984375 1.113281 -5.527344 1.222656 -6.089844 C 1.273438 -6.351562 1.105469 -6.566406 0.800781 -6.65625 C 0.585938 -6.71875 0.535156 -6.6875 0.40625 -6.359375 C 0.183594 -5.800781 -0.0078125 -5.230469 -0.175781 -4.65625 C -0.34375 -4.070312 -0.519531 -3.496094 -0.511719 -2.878906 C -0.503906 -2.457031 -0.304688 -2.183594 0.0976562 -2.039062 C 0.273438 -1.976562 0.433594 -2 0.566406 -2.136719 C 0.742188 -2.3125 0.910156 -2.503906 1.054688 -2.703125 C 2.214844 -4.335938 3.488281 -5.878906 4.894531 -7.3125 C 4.96875 -7.382812 4.960938 -7.441406 4.894531 -7.496094 Z M 4.894531 -7.496094 "/></g></g></g><g fill="#ffbd59" fill-opacity="1"><g transform="translate(147.351865, 234.728891)"><g><path d="M 2.671875 -3.191406 C 2.992188 -3 3.320312 -2.945312 3.679688 -3.097656 C 3.945312 -3.207031 4.191406 -3.34375 4.425781 -3.511719 C 5.121094 -4 5.792969 -4.527344 6.40625 -5.121094 C 6.566406 -5.265625 6.550781 -5.335938 6.359375 -5.441406 C 6.144531 -5.550781 5.976562 -5.441406 5.800781 -5.351562 C 5.351562 -5.105469 4.9375 -4.800781 4.503906 -4.527344 C 4.097656 -4.273438 3.6875 -4.007812 3.257812 -3.785156 C 3.230469 -3.878906 3.273438 -3.953125 3.296875 -4.023438 C 3.40625 -4.328125 3.519531 -4.632812 3.640625 -4.929688 C 3.695312 -5.070312 3.65625 -5.175781 3.542969 -5.265625 C 3.367188 -5.40625 3.167969 -5.480469 2.921875 -5.433594 C 3 -5.617188 3.078125 -5.777344 3.144531 -5.945312 C 3.214844 -6.128906 3.183594 -6.304688 3.03125 -6.433594 C 2.726562 -6.6875 2.382812 -6.816406 1.984375 -6.710938 C 1.679688 -6.632812 1.414062 -6.464844 1.175781 -6.273438 C 0.441406 -5.695312 -0.160156 -5 -0.65625 -4.214844 C -0.832031 -3.9375 -0.976562 -3.648438 -1.046875 -3.320312 C -1.136719 -2.945312 -1.046875 -2.6875 -0.71875 -2.472656 C -0.3125 -2.191406 0.105469 -2.121094 0.558594 -2.40625 C 1.144531 -2.785156 1.664062 -3.238281 2.183594 -3.695312 C 2.238281 -3.742188 2.289062 -3.792969 2.382812 -3.871094 C 2.335938 -3.550781 2.441406 -3.335938 2.671875 -3.191406 Z M 0.464844 -3.433594 C 0.457031 -3.425781 0.449219 -3.433594 0.40625 -3.441406 C 0.96875 -4.375 1.617188 -5.230469 2.480469 -5.960938 C 2.480469 -5.753906 2.472656 -5.59375 2.414062 -5.457031 C 2.359375 -5.320312 2.40625 -5.246094 2.511719 -5.199219 C 2.585938 -5.167969 2.617188 -5.136719 2.542969 -5.070312 C 1.886719 -4.480469 1.207031 -3.910156 0.464844 -3.433594 Z M 0.464844 -3.433594 "/></g></g></g><g fill="#ffbd59" fill-opacity="1"><g transform="translate(152.935917, 234.728891)"><g><path d="M 2.351562 -5.664062 C 2.367188 -5.417969 2.441406 -5.230469 2.671875 -5.167969 C 2.734375 -5.152344 2.792969 -5.144531 2.808594 -5.238281 C 2.855469 -5.441406 2.984375 -5.585938 3.128906 -5.726562 C 3.335938 -5.953125 3.335938 -6.113281 3.121094 -6.335938 C 2.761719 -6.703125 2.28125 -6.769531 1.808594 -6.511719 C 1.433594 -6.304688 1.105469 -6.03125 0.785156 -5.742188 C 0.121094 -5.121094 -0.351562 -4.382812 -0.550781 -3.480469 C -0.609375 -3.230469 -0.601562 -2.992188 -0.40625 -2.785156 C -0.0390625 -2.382812 0.496094 -2.246094 1.007812 -2.457031 C 1.871094 -2.808594 2.679688 -3.273438 3.503906 -3.710938 C 4.078125 -4.015625 4.671875 -4.28125 5.214844 -4.632812 C 5.304688 -4.6875 5.464844 -4.71875 5.433594 -4.855469 C 5.398438 -4.992188 5.265625 -5.039062 5.144531 -5.089844 C 5.054688 -5.121094 4.976562 -5.105469 4.886719 -5.070312 C 3.574219 -4.632812 2.273438 -4.160156 0.992188 -3.640625 C 0.945312 -3.617188 0.886719 -3.558594 0.816406 -3.617188 C 1.105469 -4.457031 1.65625 -5.089844 2.351562 -5.664062 Z M 2.351562 -5.664062 "/></g></g></g><g fill="#ffbd59" fill-opacity="1"><g transform="translate(157.855965, 234.728891)"><g><path d="M 6.503906 -5.695312 C 6.3125 -5.808594 6.121094 -5.734375 5.9375 -5.65625 C 5.398438 -5.417969 4.878906 -5.144531 4.382812 -4.832031 C 3.863281 -4.519531 3.328125 -4.238281 2.800781 -3.945312 C 2.792969 -3.960938 2.785156 -3.976562 2.769531 -3.984375 C 2.800781 -4.046875 2.839844 -4.121094 2.871094 -4.183594 C 3.152344 -4.703125 3.464844 -5.207031 3.71875 -5.742188 C 3.761719 -5.832031 3.792969 -5.894531 3.71875 -5.984375 C 3.550781 -6.175781 3.328125 -6.199219 3.144531 -6.023438 C 3.113281 -5.992188 3.078125 -5.960938 3.046875 -5.9375 C 2.433594 -5.566406 1.910156 -5.089844 1.359375 -4.632812 C 1.046875 -4.382812 0.753906 -4.121094 0.414062 -3.894531 C 0.457031 -4.015625 0.511719 -4.121094 0.566406 -4.230469 C 0.929688 -4.9375 1.375 -5.59375 1.769531 -6.28125 C 1.894531 -6.496094 1.863281 -6.609375 1.648438 -6.761719 C 1.40625 -6.929688 1.273438 -6.929688 1.113281 -6.742188 C 0.527344 -6.054688 0.0625 -5.296875 -0.335938 -4.488281 C -0.457031 -4.257812 -0.550781 -4.015625 -0.617188 -3.761719 C -0.695312 -3.390625 -0.617188 -3.175781 -0.328125 -2.976562 C -0.015625 -2.761719 0.175781 -2.769531 0.503906 -3 C 0.921875 -3.289062 1.28125 -3.632812 1.648438 -3.976562 C 1.695312 -4.015625 1.726562 -4.078125 1.832031 -4.097656 C 1.65625 -3.777344 1.496094 -3.472656 1.328125 -3.175781 C 1.3125 -3.144531 1.273438 -3.128906 1.238281 -3.113281 C 0.351562 -2.726562 -0.457031 -2.191406 -1.304688 -1.726562 C -2.222656 -1.238281 -3.078125 -0.65625 -3.910156 -0.0390625 C -4.273438 0.222656 -4.273438 0.519531 -3.929688 0.792969 C -3.351562 1.246094 -2.664062 1.480469 -1.992188 1.742188 C -1.625 1.878906 -1.238281 1.902344 -0.855469 1.910156 C -0.550781 1.910156 -0.296875 1.800781 -0.078125 1.574219 C 0.0546875 1.425781 0.160156 1.265625 0.246094 1.078125 C 0.894531 -0.246094 1.511719 -1.601562 2.222656 -2.902344 C 2.265625 -2.992188 2.304688 -3.078125 2.398438 -3.128906 C 3.726562 -3.871094 4.992188 -4.726562 6.375 -5.367188 C 6.433594 -5.390625 6.472656 -5.425781 6.519531 -5.449219 C 6.664062 -5.542969 6.664062 -5.609375 6.503906 -5.695312 Z M 0.359375 -1.40625 C 0.03125 -0.742188 -0.296875 -0.0898438 -0.625 0.574219 C -0.6875 0.703125 -0.777344 0.824219 -0.863281 0.945312 C -1.121094 1.34375 -1.503906 1.382812 -1.910156 1.296875 C -2.375 1.183594 -2.800781 0.96875 -3.230469 0.753906 C -3.359375 0.695312 -3.359375 0.609375 -3.296875 0.496094 C -3.246094 0.398438 -3.167969 0.320312 -3.078125 0.246094 C -2.59375 -0.207031 -2.0625 -0.617188 -1.480469 -0.953125 C -0.777344 -1.359375 -0.078125 -1.761719 0.625 -2.167969 C 0.671875 -2.191406 0.710938 -2.207031 0.800781 -2.257812 C 0.640625 -1.945312 0.496094 -1.671875 0.359375 -1.40625 Z M 0.359375 -1.40625 "/></g></g></g><g fill="#ffbd59" fill-opacity="1"><g transform="translate(162.960015, 234.728891)"><g/></g></g><g fill="#ffbd59" fill-opacity="1"><g transform="translate(166.160047, 234.728891)"><g><path d="M 0.960938 -4.214844 C 1.648438 -5.625 2.488281 -6.9375 3.289062 -8.273438 C 3.34375 -8.367188 3.425781 -8.390625 3.511719 -8.398438 C 4.777344 -8.609375 6.046875 -8.777344 7.320312 -8.894531 C 7.40625 -8.902344 7.542969 -8.871094 7.558594 -8.976562 C 7.574219 -9.105469 7.449219 -9.160156 7.34375 -9.199219 C 7.289062 -9.222656 7.222656 -9.222656 7.167969 -9.222656 C 6.191406 -9.207031 5.222656 -9.136719 4.257812 -9.023438 C 4.078125 -9 3.894531 -8.953125 3.695312 -8.96875 C 3.734375 -9.0625 3.777344 -9.144531 3.816406 -9.214844 C 3.847656 -9.296875 3.886719 -9.375 3.921875 -9.457031 C 4.007812 -9.664062 3.953125 -9.792969 3.695312 -9.945312 C 3.472656 -10.078125 3.367188 -10.070312 3.214844 -9.886719 C 2.96875 -9.59375 2.753906 -9.273438 2.535156 -8.945312 C 2.457031 -8.816406 2.351562 -8.761719 2.207031 -8.734375 C 1.441406 -8.617188 0.695312 -8.433594 -0.0390625 -8.167969 C -0.191406 -8.113281 -0.183594 -8.039062 -0.0976562 -7.945312 C -0.0390625 -7.871094 0.0390625 -7.824219 0.128906 -7.832031 C 0.257812 -7.839844 0.382812 -7.847656 0.511719 -7.871094 C 0.984375 -7.960938 1.464844 -8.046875 1.953125 -8.136719 C 1.953125 -8.046875 1.902344 -8.007812 1.871094 -7.96875 C 1.59375 -7.511719 1.296875 -7.054688 1.015625 -6.601562 C 0.449219 -5.679688 -0.078125 -4.742188 -0.441406 -3.71875 C -0.640625 -3.144531 -0.800781 -2.566406 -0.71875 -1.945312 C -0.6875 -1.71875 -0.640625 -1.496094 -0.480469 -1.328125 C -0.121094 -0.945312 0.238281 -0.847656 0.632812 -1.191406 C 0.742188 -1.289062 0.863281 -1.375 0.976562 -1.472656 C 1.960938 -2.34375 2.96875 -3.183594 3.984375 -4.015625 C 4.359375 -4.320312 4.742188 -4.632812 5.097656 -4.976562 C 5.214844 -5.097656 5.183594 -5.160156 5.0625 -5.246094 C 4.953125 -5.328125 4.855469 -5.304688 4.742188 -5.222656 C 3.238281 -4.167969 1.742188 -3.078125 0.328125 -1.902344 C 0.265625 -1.839844 0.199219 -1.777344 0.0898438 -1.742188 C 0.105469 -1.832031 0.113281 -1.894531 0.121094 -1.960938 C 0.289062 -2.761719 0.609375 -3.496094 0.960938 -4.214844 Z M 0.960938 -4.214844 "/></g></g></g><g fill="#ffbd59" fill-opacity="1"><g transform="translate(170.584092, 234.728891)"><g><path d="M 2.671875 -3.191406 C 2.992188 -3 3.320312 -2.945312 3.679688 -3.097656 C 3.945312 -3.207031 4.191406 -3.34375 4.425781 -3.511719 C 5.121094 -4 5.792969 -4.527344 6.40625 -5.121094 C 6.566406 -5.265625 6.550781 -5.335938 6.359375 -5.441406 C 6.144531 -5.550781 5.976562 -5.441406 5.800781 -5.351562 C 5.351562 -5.105469 4.9375 -4.800781 4.503906 -4.527344 C 4.097656 -4.273438 3.6875 -4.007812 3.257812 -3.785156 C 3.230469 -3.878906 3.273438 -3.953125 3.296875 -4.023438 C 3.40625 -4.328125 3.519531 -4.632812 3.640625 -4.929688 C 3.695312 -5.070312 3.65625 -5.175781 3.542969 -5.265625 C 3.367188 -5.40625 3.167969 -5.480469 2.921875 -5.433594 C 3 -5.617188 3.078125 -5.777344 3.144531 -5.945312 C 3.214844 -6.128906 3.183594 -6.304688 3.03125 -6.433594 C 2.726562 -6.6875 2.382812 -6.816406 1.984375 -6.710938 C 1.679688 -6.632812 1.414062 -6.464844 1.175781 -6.273438 C 0.441406 -5.695312 -0.160156 -5 -0.65625 -4.214844 C -0.832031 -3.9375 -0.976562 -3.648438 -1.046875 -3.320312 C -1.136719 -2.945312 -1.046875 -2.6875 -0.71875 -2.472656 C -0.3125 -2.191406 0.105469 -2.121094 0.558594 -2.40625 C 1.144531 -2.785156 1.664062 -3.238281 2.183594 -3.695312 C 2.238281 -3.742188 2.289062 -3.792969 2.382812 -3.871094 C 2.335938 -3.550781 2.441406 -3.335938 2.671875 -3.191406 Z M 0.464844 -3.433594 C 0.457031 -3.425781 0.449219 -3.433594 0.40625 -3.441406 C 0.96875 -4.375 1.617188 -5.230469 2.480469 -5.960938 C 2.480469 -5.753906 2.472656 -5.59375 2.414062 -5.457031 C 2.359375 -5.320312 2.40625 -5.246094 2.511719 -5.199219 C 2.585938 -5.167969 2.617188 -5.136719 2.542969 -5.070312 C 1.886719 -4.480469 1.207031 -3.910156 0.464844 -3.433594 Z M 0.464844 -3.433594 "/></g></g></g><g fill="#ffbd59" fill-opacity="1"><g transform="translate(176.168144, 234.728891)"><g><path d="M 3.792969 -3.640625 C 3.894531 -3.6875 3.886719 -3.761719 3.800781 -3.824219 C 3.671875 -3.929688 3.511719 -3.976562 3.351562 -3.9375 C 2.871094 -3.839844 2.390625 -3.808594 1.910156 -3.761719 C 1.488281 -3.710938 1.054688 -3.6875 0.574219 -3.648438 C 0.679688 -3.839844 0.785156 -3.953125 0.894531 -4.070312 C 1.167969 -4.351562 1.480469 -4.585938 1.785156 -4.832031 C 2.246094 -5.199219 2.710938 -5.566406 3.175781 -5.945312 C 3.320312 -6.054688 3.3125 -6.144531 3.144531 -6.222656 C 2.894531 -6.351562 2.648438 -6.359375 2.398438 -6.230469 C 2.046875 -6.046875 1.742188 -5.808594 1.425781 -5.574219 C 1.382812 -5.550781 1.351562 -5.503906 1.265625 -5.503906 C 1.542969 -6.054688 1.808594 -6.59375 2.070312 -7.128906 C 2.449219 -7.902344 2.847656 -8.664062 3.183594 -9.449219 C 3.28125 -9.664062 3.214844 -9.785156 2.992188 -9.921875 C 2.808594 -10.03125 2.695312 -10.015625 2.542969 -9.839844 C 2.320312 -9.585938 2.144531 -9.289062 1.984375 -8.992188 C 1.128906 -7.425781 0.3125 -5.832031 -0.464844 -4.222656 C -0.886719 -3.359375 -1.222656 -2.464844 -1.382812 -1.511719 C -1.425781 -1.265625 -1.472656 -1.023438 -1.449219 -0.777344 C -1.425781 -0.558594 -1.191406 -0.335938 -0.96875 -0.289062 C -0.734375 -0.238281 -0.71875 -0.449219 -0.625 -0.558594 C -0.566406 -0.625 -0.566406 -0.6875 -0.625 -0.742188 C -0.664062 -0.800781 -0.664062 -0.855469 -0.648438 -0.921875 C -0.425781 -1.640625 -0.167969 -2.351562 0.121094 -3.046875 C 0.160156 -3.136719 0.199219 -3.160156 0.289062 -3.136719 C 0.542969 -3.0625 0.808594 -3.054688 1.0625 -3.070312 C 1.894531 -3.113281 2.703125 -3.289062 3.503906 -3.503906 C 3.609375 -3.535156 3.695312 -3.59375 3.792969 -3.640625 Z M 3.792969 -3.640625 "/></g></g></g><g fill="#ffbd59" fill-opacity="1"><g transform="translate(180.968197, 234.728891)"><g><path d="M 2.304688 -4.390625 C 2.679688 -4.847656 2.9375 -5.382812 3.070312 -5.960938 C 3.152344 -6.3125 3.039062 -6.609375 2.734375 -6.824219 C 2.273438 -7.152344 1.785156 -7.144531 1.34375 -6.785156 C 1.039062 -6.535156 0.785156 -6.257812 0.566406 -5.9375 C 0.0976562 -5.246094 -0.335938 -4.527344 -0.527344 -3.703125 C -0.625 -3.289062 -0.535156 -2.910156 -0.199219 -2.625 C 0.160156 -2.328125 0.566406 -2.175781 1.039062 -2.214844 C 1.433594 -2.246094 1.792969 -2.40625 2.136719 -2.59375 C 3.496094 -3.304688 4.71875 -4.214844 6.007812 -5.046875 C 6.113281 -5.113281 6.089844 -5.167969 6.007812 -5.230469 C 5.863281 -5.359375 5.703125 -5.375 5.519531 -5.328125 C 5.359375 -5.289062 5.207031 -5.222656 5.054688 -5.144531 C 4.128906 -4.648438 3.199219 -4.144531 2.265625 -3.648438 C 1.734375 -3.367188 1.214844 -3.078125 0.648438 -2.902344 C 0.449219 -2.839844 0.414062 -2.863281 0.40625 -3.078125 C 0.390625 -3.511719 0.550781 -3.902344 0.726562 -4.296875 C 1.519531 -3.703125 1.953125 -3.96875 2.304688 -4.390625 Z M 1.078125 -4.953125 C 1.390625 -5.519531 1.761719 -6.046875 2.273438 -6.457031 C 2.28125 -6.464844 2.304688 -6.464844 2.320312 -6.472656 C 2.351562 -6.398438 2.328125 -6.328125 2.3125 -6.265625 C 2.136719 -5.671875 1.847656 -5.152344 1.398438 -4.71875 C 1.351562 -4.671875 1.289062 -4.566406 1.222656 -4.640625 C 1.152344 -4.71875 1.015625 -4.832031 1.078125 -4.953125 Z M 1.078125 -4.953125 "/></g></g></g><g fill="#ffbd59" fill-opacity="1"><g transform="translate(185.856243, 234.728891)"><g/></g></g><g fill="#ffbd59" fill-opacity="1"><g transform="translate(189.056275, 234.728891)"><g><path d="M 2.351562 -5.664062 C 2.367188 -5.417969 2.441406 -5.230469 2.671875 -5.167969 C 2.734375 -5.152344 2.792969 -5.144531 2.808594 -5.238281 C 2.855469 -5.441406 2.984375 -5.585938 3.128906 -5.726562 C 3.335938 -5.953125 3.335938 -6.113281 3.121094 -6.335938 C 2.761719 -6.703125 2.28125 -6.769531 1.808594 -6.511719 C 1.433594 -6.304688 1.105469 -6.03125 0.785156 -5.742188 C 0.121094 -5.121094 -0.351562 -4.382812 -0.550781 -3.480469 C -0.609375 -3.230469 -0.601562 -2.992188 -0.40625 -2.785156 C -0.0390625 -2.382812 0.496094 -2.246094 1.007812 -2.457031 C 1.871094 -2.808594 2.679688 -3.273438 3.503906 -3.710938 C 4.078125 -4.015625 4.671875 -4.28125 5.214844 -4.632812 C 5.304688 -4.6875 5.464844 -4.71875 5.433594 -4.855469 C 5.398438 -4.992188 5.265625 -5.039062 5.144531 -5.089844 C 5.054688 -5.121094 4.976562 -5.105469 4.886719 -5.070312 C 3.574219 -4.632812 2.273438 -4.160156 0.992188 -3.640625 C 0.945312 -3.617188 0.886719 -3.558594 0.816406 -3.617188 C 1.105469 -4.457031 1.65625 -5.089844 2.351562 -5.664062 Z M 2.351562 -5.664062 "/></g></g></g><g fill="#ffbd59" fill-opacity="1"><g transform="translate(193.976323, 234.728891)"><g><path d="M 2.304688 -4.390625 C 2.679688 -4.847656 2.9375 -5.382812 3.070312 -5.960938 C 3.152344 -6.3125 3.039062 -6.609375 2.734375 -6.824219 C 2.273438 -7.152344 1.785156 -7.144531 1.34375 -6.785156 C 1.039062 -6.535156 0.785156 -6.257812 0.566406 -5.9375 C 0.0976562 -5.246094 -0.335938 -4.527344 -0.527344 -3.703125 C -0.625 -3.289062 -0.535156 -2.910156 -0.199219 -2.625 C 0.160156 -2.328125 0.566406 -2.175781 1.039062 -2.214844 C 1.433594 -2.246094 1.792969 -2.40625 2.136719 -2.59375 C 3.496094 -3.304688 4.71875 -4.214844 6.007812 -5.046875 C 6.113281 -5.113281 6.089844 -5.167969 6.007812 -5.230469 C 5.863281 -5.359375 5.703125 -5.375 5.519531 -5.328125 C 5.359375 -5.289062 5.207031 -5.222656 5.054688 -5.144531 C 4.128906 -4.648438 3.199219 -4.144531 2.265625 -3.648438 C 1.734375 -3.367188 1.214844 -3.078125 0.648438 -2.902344 C 0.449219 -2.839844 0.414062 -2.863281 0.40625 -3.078125 C 0.390625 -3.511719 0.550781 -3.902344 0.726562 -4.296875 C 1.519531 -3.703125 1.953125 -3.96875 2.304688 -4.390625 Z M 1.078125 -4.953125 C 1.390625 -5.519531 1.761719 -6.046875 2.273438 -6.457031 C 2.28125 -6.464844 2.304688 -6.464844 2.320312 -6.472656 C 2.351562 -6.398438 2.328125 -6.328125 2.3125 -6.265625 C 2.136719 -5.671875 1.847656 -5.152344 1.398438 -4.71875 C 1.351562 -4.671875 1.289062 -4.566406 1.222656 -4.640625 C 1.152344 -4.71875 1.015625 -4.832031 1.078125 -4.953125 Z M 1.078125 -4.953125 "/></g></g></g><g fill="#ffbd59" fill-opacity="1"><g transform="translate(198.864369, 234.728891)"><g><path d="M 3.230469 -3.199219 C 3.535156 -3.015625 3.863281 -2.953125 4.207031 -3.070312 C 4.382812 -3.136719 4.550781 -3.207031 4.71875 -3.296875 C 5.359375 -3.625 5.984375 -3.992188 6.59375 -4.382812 C 6.847656 -4.550781 7.097656 -4.71875 7.328125 -4.921875 C 7.457031 -5.03125 7.457031 -5.097656 7.3125 -5.191406 C 7.160156 -5.304688 7 -5.335938 6.808594 -5.230469 C 5.894531 -4.742188 4.976562 -4.257812 4.03125 -3.816406 C 3.953125 -3.777344 3.863281 -3.71875 3.753906 -3.71875 C 3.761719 -3.816406 3.769531 -3.894531 3.785156 -3.976562 C 3.871094 -4.359375 3.960938 -4.742188 4.039062 -5.136719 C 4.121094 -5.550781 4.007812 -5.742188 3.625 -5.902344 C 3.390625 -6 3.183594 -5.976562 2.96875 -5.847656 C 2.679688 -5.679688 2.425781 -5.464844 2.175781 -5.238281 C 1.6875 -4.808594 1.199219 -4.367188 0.695312 -3.910156 C 0.6875 -4 0.734375 -4.046875 0.761719 -4.105469 C 1.113281 -4.855469 1.511719 -5.585938 1.921875 -6.304688 C 2.007812 -6.457031 1.976562 -6.566406 1.847656 -6.65625 C 1.457031 -6.929688 1.230469 -6.929688 0.976562 -6.59375 C 0.34375 -5.761719 -0.183594 -4.863281 -0.601562 -3.910156 C -0.71875 -3.648438 -0.800781 -3.375 -0.832031 -3.089844 C -0.863281 -2.800781 -0.753906 -2.601562 -0.464844 -2.449219 C -0.191406 -2.304688 0.0898438 -2.199219 0.367188 -2.441406 C 0.59375 -2.640625 0.792969 -2.855469 0.992188 -3.070312 C 1.625 -3.734375 2.28125 -4.375 2.984375 -4.960938 C 3.03125 -5 3.089844 -5.03125 3.167969 -5.097656 C 3.0625 -4.65625 2.929688 -4.28125 2.894531 -3.871094 C 2.871094 -3.585938 2.976562 -3.359375 3.230469 -3.199219 Z M 3.230469 -3.199219 "/></g></g></g><g fill="#ffbd59" fill-opacity="1"><g transform="translate(205.536437, 234.728891)"><g><path d="M 0.960938 -4.214844 C 1.648438 -5.625 2.488281 -6.9375 3.289062 -8.273438 C 3.34375 -8.367188 3.425781 -8.390625 3.511719 -8.398438 C 4.777344 -8.609375 6.046875 -8.777344 7.320312 -8.894531 C 7.40625 -8.902344 7.542969 -8.871094 7.558594 -8.976562 C 7.574219 -9.105469 7.449219 -9.160156 7.34375 -9.199219 C 7.289062 -9.222656 7.222656 -9.222656 7.167969 -9.222656 C 6.191406 -9.207031 5.222656 -9.136719 4.257812 -9.023438 C 4.078125 -9 3.894531 -8.953125 3.695312 -8.96875 C 3.734375 -9.0625 3.777344 -9.144531 3.816406 -9.214844 C 3.847656 -9.296875 3.886719 -9.375 3.921875 -9.457031 C 4.007812 -9.664062 3.953125 -9.792969 3.695312 -9.945312 C 3.472656 -10.078125 3.367188 -10.070312 3.214844 -9.886719 C 2.96875 -9.59375 2.753906 -9.273438 2.535156 -8.945312 C 2.457031 -8.816406 2.351562 -8.761719 2.207031 -8.734375 C 1.441406 -8.617188 0.695312 -8.433594 -0.0390625 -8.167969 C -0.191406 -8.113281 -0.183594 -8.039062 -0.0976562 -7.945312 C -0.0390625 -7.871094 0.0390625 -7.824219 0.128906 -7.832031 C 0.257812 -7.839844 0.382812 -7.847656 0.511719 -7.871094 C 0.984375 -7.960938 1.464844 -8.046875 1.953125 -8.136719 C 1.953125 -8.046875 1.902344 -8.007812 1.871094 -7.96875 C 1.59375 -7.511719 1.296875 -7.054688 1.015625 -6.601562 C 0.449219 -5.679688 -0.078125 -4.742188 -0.441406 -3.71875 C -0.640625 -3.144531 -0.800781 -2.566406 -0.71875 -1.945312 C -0.6875 -1.71875 -0.640625 -1.496094 -0.480469 -1.328125 C -0.121094 -0.945312 0.238281 -0.847656 0.632812 -1.191406 C 0.742188 -1.289062 0.863281 -1.375 0.976562 -1.472656 C 1.960938 -2.34375 2.96875 -3.183594 3.984375 -4.015625 C 4.359375 -4.320312 4.742188 -4.632812 5.097656 -4.976562 C 5.214844 -5.097656 5.183594 -5.160156 5.0625 -5.246094 C 4.953125 -5.328125 4.855469 -5.304688 4.742188 -5.222656 C 3.238281 -4.167969 1.742188 -3.078125 0.328125 -1.902344 C 0.265625 -1.839844 0.199219 -1.777344 0.0898438 -1.742188 C 0.105469 -1.832031 0.113281 -1.894531 0.121094 -1.960938 C 0.289062 -2.761719 0.609375 -3.496094 0.960938 -4.214844 Z M 0.960938 -4.214844 "/></g></g></g><g fill="#ffbd59" fill-opacity="1"><g transform="translate(209.960482, 234.728891)"><g><path d="M 2.304688 -4.390625 C 2.679688 -4.847656 2.9375 -5.382812 3.070312 -5.960938 C 3.152344 -6.3125 3.039062 -6.609375 2.734375 -6.824219 C 2.273438 -7.152344 1.785156 -7.144531 1.34375 -6.785156 C 1.039062 -6.535156 0.785156 -6.257812 0.566406 -5.9375 C 0.0976562 -5.246094 -0.335938 -4.527344 -0.527344 -3.703125 C -0.625 -3.289062 -0.535156 -2.910156 -0.199219 -2.625 C 0.160156 -2.328125 0.566406 -2.175781 1.039062 -2.214844 C 1.433594 -2.246094 1.792969 -2.40625 2.136719 -2.59375 C 3.496094 -3.304688 4.71875 -4.214844 6.007812 -5.046875 C 6.113281 -5.113281 6.089844 -5.167969 6.007812 -5.230469 C 5.863281 -5.359375 5.703125 -5.375 5.519531 -5.328125 C 5.359375 -5.289062 5.207031 -5.222656 5.054688 -5.144531 C 4.128906 -4.648438 3.199219 -4.144531 2.265625 -3.648438 C 1.734375 -3.367188 1.214844 -3.078125 0.648438 -2.902344 C 0.449219 -2.839844 0.414062 -2.863281 0.40625 -3.078125 C 0.390625 -3.511719 0.550781 -3.902344 0.726562 -4.296875 C 1.519531 -3.703125 1.953125 -3.96875 2.304688 -4.390625 Z M 1.078125 -4.953125 C 1.390625 -5.519531 1.761719 -6.046875 2.273438 -6.457031 C 2.28125 -6.464844 2.304688 -6.464844 2.320312 -6.472656 C 2.351562 -6.398438 2.328125 -6.328125 2.3125 -6.265625 C 2.136719 -5.671875 1.847656 -5.152344 1.398438 -4.71875 C 1.351562 -4.671875 1.289062 -4.566406 1.222656 -4.640625 C 1.152344 -4.71875 1.015625 -4.832031 1.078125 -4.953125 Z M 1.078125 -4.953125 "/></g></g></g><g fill="#ffbd59" fill-opacity="1"><g transform="translate(214.848527, 234.728891)"><g><path d="M 3.601562 -5.609375 C 3.558594 -5.617188 3.519531 -5.617188 3.488281 -5.609375 C 3.230469 -5.542969 3 -5.609375 2.777344 -5.726562 C 2.480469 -5.894531 2.183594 -5.878906 1.894531 -5.695312 C 1.800781 -5.640625 1.703125 -5.574219 1.558594 -5.488281 C 1.648438 -5.640625 1.703125 -5.753906 1.761719 -5.855469 C 1.878906 -6.078125 1.847656 -6.199219 1.632812 -6.359375 C 1.367188 -6.558594 1.183594 -6.574219 1.007812 -6.398438 C 0.832031 -6.230469 0.679688 -6.03125 0.535156 -5.832031 C 0.015625 -5.078125 -0.480469 -4.320312 -0.800781 -3.464844 C -0.960938 -3.039062 -0.824219 -2.769531 -0.390625 -2.609375 C -0.230469 -2.550781 -0.113281 -2.566406 0 -2.726562 C 0.359375 -3.28125 0.753906 -3.800781 1.207031 -4.28125 C 1.550781 -4.648438 1.894531 -5.007812 2.328125 -5.273438 C 2.535156 -5.398438 2.734375 -5.457031 2.976562 -5.328125 C 3.183594 -5.222656 3.414062 -5.183594 3.640625 -5.28125 C 3.710938 -5.3125 3.839844 -5.320312 3.832031 -5.425781 C 3.816406 -5.527344 3.703125 -5.585938 3.601562 -5.609375 Z M 3.601562 -5.609375 "/></g></g></g><g fill="#ffbd59" fill-opacity="1"><g transform="translate(218.968565, 234.728891)"><g/></g></g><g fill="#ffbd59" fill-opacity="1"><g transform="translate(222.168597, 234.728891)"><g><path d="M 2.144531 -5.367188 C 2.0625 -5.222656 2.105469 -5.089844 2.222656 -4.984375 C 2.34375 -4.871094 2.496094 -4.734375 2.664062 -4.839844 C 3.078125 -5.070312 3.457031 -5.351562 3.734375 -5.734375 C 3.894531 -5.960938 3.886719 -6.214844 3.71875 -6.425781 C 3.433594 -6.785156 3.054688 -7.023438 2.585938 -6.992188 C 1.585938 -6.921875 0.769531 -6.464844 0.160156 -5.664062 C -0.0703125 -5.351562 -0.0234375 -5.03125 0.230469 -4.726562 C 0.574219 -4.335938 1.03125 -4.160156 1.511719 -4.023438 C 1.632812 -3.992188 1.816406 -4.007812 1.839844 -3.894531 C 1.871094 -3.753906 1.71875 -3.648438 1.609375 -3.558594 C 1.542969 -3.503906 1.480469 -3.449219 1.40625 -3.398438 C 1.121094 -3.199219 0.839844 -3 0.550781 -2.800781 C 0.34375 -2.648438 0.136719 -2.496094 -0.0546875 -2.320312 C -0.167969 -2.214844 -0.167969 -2.113281 -0.0625 -2 C 0.128906 -1.785156 0.328125 -1.734375 0.574219 -1.871094 C 1.039062 -2.121094 1.496094 -2.382812 1.9375 -2.664062 C 2.152344 -2.808594 2.367188 -2.960938 2.527344 -3.167969 C 2.710938 -3.414062 2.710938 -3.679688 2.535156 -3.921875 C 2.457031 -4.03125 2.351562 -4.128906 2.246094 -4.207031 C 1.929688 -4.441406 1.566406 -4.558594 1.199219 -4.679688 C 0.984375 -4.753906 0.960938 -4.800781 1.097656 -4.992188 C 1.488281 -5.527344 2.03125 -5.847656 2.640625 -6.078125 C 2.648438 -6.0625 2.664062 -6.046875 2.671875 -6.039062 C 2.550781 -5.902344 2.433594 -5.769531 2.320312 -5.625 C 2.257812 -5.542969 2.199219 -5.457031 2.144531 -5.367188 Z M 2.144531 -5.367188 "/></g></g></g><g fill="#ffbd59" fill-opacity="1"><g transform="translate(226.16864, 234.728891)"><g><path d="M 0.960938 -4.214844 C 1.648438 -5.625 2.488281 -6.9375 3.289062 -8.273438 C 3.34375 -8.367188 3.425781 -8.390625 3.511719 -8.398438 C 4.777344 -8.609375 6.046875 -8.777344 7.320312 -8.894531 C 7.40625 -8.902344 7.542969 -8.871094 7.558594 -8.976562 C 7.574219 -9.105469 7.449219 -9.160156 7.34375 -9.199219 C 7.289062 -9.222656 7.222656 -9.222656 7.167969 -9.222656 C 6.191406 -9.207031 5.222656 -9.136719 4.257812 -9.023438 C 4.078125 -9 3.894531 -8.953125 3.695312 -8.96875 C 3.734375 -9.0625 3.777344 -9.144531 3.816406 -9.214844 C 3.847656 -9.296875 3.886719 -9.375 3.921875 -9.457031 C 4.007812 -9.664062 3.953125 -9.792969 3.695312 -9.945312 C 3.472656 -10.078125 3.367188 -10.070312 3.214844 -9.886719 C 2.96875 -9.59375 2.753906 -9.273438 2.535156 -8.945312 C 2.457031 -8.816406 2.351562 -8.761719 2.207031 -8.734375 C 1.441406 -8.617188 0.695312 -8.433594 -0.0390625 -8.167969 C -0.191406 -8.113281 -0.183594 -8.039062 -0.0976562 -7.945312 C -0.0390625 -7.871094 0.0390625 -7.824219 0.128906 -7.832031 C 0.257812 -7.839844 0.382812 -7.847656 0.511719 -7.871094 C 0.984375 -7.960938 1.464844 -8.046875 1.953125 -8.136719 C 1.953125 -8.046875 1.902344 -8.007812 1.871094 -7.96875 C 1.59375 -7.511719 1.296875 -7.054688 1.015625 -6.601562 C 0.449219 -5.679688 -0.078125 -4.742188 -0.441406 -3.71875 C -0.640625 -3.144531 -0.800781 -2.566406 -0.71875 -1.945312 C -0.6875 -1.71875 -0.640625 -1.496094 -0.480469 -1.328125 C -0.121094 -0.945312 0.238281 -0.847656 0.632812 -1.191406 C 0.742188 -1.289062 0.863281 -1.375 0.976562 -1.472656 C 1.960938 -2.34375 2.96875 -3.183594 3.984375 -4.015625 C 4.359375 -4.320312 4.742188 -4.632812 5.097656 -4.976562 C 5.214844 -5.097656 5.183594 -5.160156 5.0625 -5.246094 C 4.953125 -5.328125 4.855469 -5.304688 4.742188 -5.222656 C 3.238281 -4.167969 1.742188 -3.078125 0.328125 -1.902344 C 0.265625 -1.839844 0.199219 -1.777344 0.0898438 -1.742188 C 0.105469 -1.832031 0.113281 -1.894531 0.121094 -1.960938 C 0.289062 -2.761719 0.609375 -3.496094 0.960938 -4.214844 Z M 0.960938 -4.214844 "/></g></g></g><g fill="#ffbd59" fill-opacity="1"><g transform="translate(230.592685, 234.728891)"><g><path d="M 2.671875 -3.191406 C 2.992188 -3 3.320312 -2.945312 3.679688 -3.097656 C 3.945312 -3.207031 4.191406 -3.34375 4.425781 -3.511719 C 5.121094 -4 5.792969 -4.527344 6.40625 -5.121094 C 6.566406 -5.265625 6.550781 -5.335938 6.359375 -5.441406 C 6.144531 -5.550781 5.976562 -5.441406 5.800781 -5.351562 C 5.351562 -5.105469 4.9375 -4.800781 4.503906 -4.527344 C 4.097656 -4.273438 3.6875 -4.007812 3.257812 -3.785156 C 3.230469 -3.878906 3.273438 -3.953125 3.296875 -4.023438 C 3.40625 -4.328125 3.519531 -4.632812 3.640625 -4.929688 C 3.695312 -5.070312 3.65625 -5.175781 3.542969 -5.265625 C 3.367188 -5.40625 3.167969 -5.480469 2.921875 -5.433594 C 3 -5.617188 3.078125 -5.777344 3.144531 -5.945312 C 3.214844 -6.128906 3.183594 -6.304688 3.03125 -6.433594 C 2.726562 -6.6875 2.382812 -6.816406 1.984375 -6.710938 C 1.679688 -6.632812 1.414062 -6.464844 1.175781 -6.273438 C 0.441406 -5.695312 -0.160156 -5 -0.65625 -4.214844 C -0.832031 -3.9375 -0.976562 -3.648438 -1.046875 -3.320312 C -1.136719 -2.945312 -1.046875 -2.6875 -0.71875 -2.472656 C -0.3125 -2.191406 0.105469 -2.121094 0.558594 -2.40625 C 1.144531 -2.785156 1.664062 -3.238281 2.183594 -3.695312 C 2.238281 -3.742188 2.289062 -3.792969 2.382812 -3.871094 C 2.335938 -3.550781 2.441406 -3.335938 2.671875 -3.191406 Z M 0.464844 -3.433594 C 0.457031 -3.425781 0.449219 -3.433594 0.40625 -3.441406 C 0.96875 -4.375 1.617188 -5.230469 2.480469 -5.960938 C 2.480469 -5.753906 2.472656 -5.59375 2.414062 -5.457031 C 2.359375 -5.320312 2.40625 -5.246094 2.511719 -5.199219 C 2.585938 -5.167969 2.617188 -5.136719 2.542969 -5.070312 C 1.886719 -4.480469 1.207031 -3.910156 0.464844 -3.433594 Z M 0.464844 -3.433594 "/></g></g></g><g fill="#ffbd59" fill-opacity="1"><g transform="translate(236.176737, 234.728891)"><g><path d="M 6.441406 -5.769531 C 6.425781 -5.839844 6.351562 -5.863281 6.289062 -5.886719 C 6.175781 -5.929688 6.078125 -5.855469 5.992188 -5.808594 C 5.070312 -5.335938 4.191406 -4.785156 3.296875 -4.246094 C 3.230469 -4.207031 3.167969 -4.167969 3.054688 -4.097656 C 3.105469 -4.214844 3.136719 -4.289062 3.167969 -4.351562 C 3.375 -4.808594 3.585938 -5.257812 3.734375 -5.742188 C 3.792969 -5.921875 3.742188 -6.0625 3.609375 -6.191406 C 3.527344 -6.273438 3.425781 -6.335938 3.320312 -6.382812 C 3.054688 -6.503906 2.960938 -6.488281 2.777344 -6.28125 C 2.414062 -6.617188 2.136719 -6.71875 1.761719 -6.648438 C 1.527344 -6.601562 1.328125 -6.496094 1.136719 -6.367188 C 0.585938 -6.015625 0.160156 -5.535156 -0.199219 -4.992188 C -0.457031 -4.609375 -0.632812 -4.183594 -0.6875 -3.71875 C -0.734375 -3.351562 -0.640625 -3.054688 -0.296875 -2.855469 C 0.0390625 -2.65625 0.34375 -2.671875 0.648438 -2.921875 C 0.695312 -2.960938 0.753906 -3 0.808594 -3.039062 C 1.191406 -3.34375 1.535156 -3.6875 1.921875 -4.015625 C 1.832031 -3.800781 1.734375 -3.585938 1.65625 -3.359375 C 1.617188 -3.257812 1.550781 -3.175781 1.449219 -3.121094 C 0.824219 -2.753906 0.207031 -2.375 -0.414062 -2 C -1.433594 -1.382812 -2.488281 -0.824219 -3.441406 -0.0898438 C -3.742188 0.144531 -4.046875 0.375 -4.265625 0.695312 C -4.425781 0.929688 -4.398438 1.089844 -4.207031 1.273438 C -4.015625 1.449219 -3.792969 1.550781 -3.542969 1.601562 C -3.273438 1.648438 -2.984375 1.6875 -2.703125 1.734375 C -2.089844 1.832031 -1.472656 1.953125 -0.847656 1.9375 C -0.351562 1.921875 0.0546875 1.734375 0.34375 1.320312 C 0.503906 1.097656 0.65625 0.863281 0.785156 0.617188 C 1.414062 -0.601562 1.992188 -1.832031 2.566406 -3.070312 C 2.625 -3.207031 2.703125 -3.296875 2.824219 -3.375 C 3.40625 -3.761719 3.992188 -4.144531 4.574219 -4.527344 C 5.160156 -4.902344 5.753906 -5.273438 6.335938 -5.640625 C 6.382812 -5.671875 6.464844 -5.6875 6.441406 -5.769531 Z M -0.265625 0.695312 C -0.335938 0.824219 -0.433594 0.945312 -0.527344 1.054688 C -0.71875 1.296875 -0.976562 1.398438 -1.289062 1.414062 C -1.878906 1.441406 -2.457031 1.320312 -3.03125 1.214844 C -3.152344 1.191406 -3.265625 1.167969 -3.375 1.152344 C -3.496094 1.136719 -3.496094 1.097656 -3.433594 1.015625 C -3.257812 0.808594 -3.046875 0.632812 -2.832031 0.457031 C -1.929688 -0.265625 -0.9375 -0.847656 0.0234375 -1.480469 C 0.382812 -1.71875 0.753906 -1.960938 1.121094 -2.199219 C 0.6875 -1.214844 0.296875 -0.214844 -0.265625 0.695312 Z M 2.425781 -5.726562 C 2.273438 -5.566406 2.152344 -5.390625 2 -5.230469 C 1.542969 -4.734375 1.054688 -4.257812 0.535156 -3.816406 C 0.480469 -3.769531 0.414062 -3.71875 0.351562 -3.671875 C 0.542969 -4.265625 0.902344 -4.742188 1.296875 -5.199219 C 1.558594 -5.496094 1.832031 -5.777344 2.167969 -6 C 2.238281 -6.039062 2.320312 -6.167969 2.425781 -6.0625 C 2.519531 -5.960938 2.535156 -5.847656 2.425781 -5.726562 Z M 2.425781 -5.726562 "/></g></g></g><g fill="#ffbd59" fill-opacity="1"><g transform="translate(241.616796, 234.728891)"><g><path d="M 2.304688 -4.390625 C 2.679688 -4.847656 2.9375 -5.382812 3.070312 -5.960938 C 3.152344 -6.3125 3.039062 -6.609375 2.734375 -6.824219 C 2.273438 -7.152344 1.785156 -7.144531 1.34375 -6.785156 C 1.039062 -6.535156 0.785156 -6.257812 0.566406 -5.9375 C 0.0976562 -5.246094 -0.335938 -4.527344 -0.527344 -3.703125 C -0.625 -3.289062 -0.535156 -2.910156 -0.199219 -2.625 C 0.160156 -2.328125 0.566406 -2.175781 1.039062 -2.214844 C 1.433594 -2.246094 1.792969 -2.40625 2.136719 -2.59375 C 3.496094 -3.304688 4.71875 -4.214844 6.007812 -5.046875 C 6.113281 -5.113281 6.089844 -5.167969 6.007812 -5.230469 C 5.863281 -5.359375 5.703125 -5.375 5.519531 -5.328125 C 5.359375 -5.289062 5.207031 -5.222656 5.054688 -5.144531 C 4.128906 -4.648438 3.199219 -4.144531 2.265625 -3.648438 C 1.734375 -3.367188 1.214844 -3.078125 0.648438 -2.902344 C 0.449219 -2.839844 0.414062 -2.863281 0.40625 -3.078125 C 0.390625 -3.511719 0.550781 -3.902344 0.726562 -4.296875 C 1.519531 -3.703125 1.953125 -3.96875 2.304688 -4.390625 Z M 1.078125 -4.953125 C 1.390625 -5.519531 1.761719 -6.046875 2.273438 -6.457031 C 2.28125 -6.464844 2.304688 -6.464844 2.320312 -6.472656 C 2.351562 -6.398438 2.328125 -6.328125 2.3125 -6.265625 C 2.136719 -5.671875 1.847656 -5.152344 1.398438 -4.71875 C 1.351562 -4.671875 1.289062 -4.566406 1.222656 -4.640625 C 1.152344 -4.71875 1.015625 -4.832031 1.078125 -4.953125 Z M 1.078125 -4.953125 "/></g></g></g><g fill="#ffbd59" fill-opacity="1"><g transform="translate(246.504842, 234.728891)"><g/></g></g><g fill="#ffbd59" fill-opacity="1"><g transform="translate(249.704874, 234.728891)"><g><path d="M 4.207031 -10.304688 C 4.449219 -10.855469 4.6875 -11.40625 4.929688 -11.960938 C 4.992188 -12.113281 4.9375 -12.167969 4.726562 -12.167969 C 4.40625 -12.175781 4.246094 -12.105469 4.113281 -11.863281 C 3.535156 -10.894531 3.070312 -9.894531 2.640625 -8.886719 C 1.910156 -7.207031 1.390625 -5.496094 0.894531 -3.785156 C 0.695312 -3.105469 0.617188 -2.40625 0.558594 -1.71875 C 0.535156 -1.59375 0.640625 -1.558594 0.785156 -1.566406 C 0.976562 -1.574219 1.070312 -1.664062 1.128906 -1.800781 C 1.359375 -2.351562 1.542969 -2.921875 1.726562 -3.488281 C 2.457031 -5.777344 3.207031 -8.0625 4.207031 -10.304688 Z M 1.105469 -1.097656 C 1.046875 -1.121094 1 -1.136719 0.953125 -1.160156 C 0.710938 -1.289062 0.488281 -1.273438 0.28125 -1.097656 C 0.0976562 -0.929688 -0.0390625 -0.726562 -0.128906 -0.488281 C -0.230469 -0.183594 -0.136719 -0.015625 0.183594 0.03125 C 0.238281 0.0390625 0.296875 0.0390625 0.382812 0.046875 C 0.777344 0.015625 1.070312 -0.214844 1.296875 -0.550781 C 1.457031 -0.792969 1.367188 -0.992188 1.105469 -1.097656 Z M 1.105469 -1.097656 "/></g></g></g></svg>