<?xml version="1.0" encoding="utf-8"?>
<!-- Generator: Adobe Illustrator 27.5.0, SVG Export Plug-In . SVG Version: 6.00 Build 0)  -->
<svg version="1.1" xmlns="http://www.w3.org/2000/svg" xmlns:xlink="http://www.w3.org/1999/xlink" x="0px" y="0px"
	 viewBox="0 0 750 500" style="enable-background:new 0 0 750 500;" xml:space="preserve">
<g id="Background_2">
	<g>
		<path style="fill:#EBEBEB;" d="M438.91,111.084h70.595c0,0,0.009-16.162-8.335-16.162c-11.007,0-12.943,10.02-12.943,10.02
			s0-30.164-15.177-25.739c-14.362,4.188-15.985,23.497-15.985,23.497s-2.585-9.71-10.37-4.238
			C438.91,103.935,438.91,111.084,438.91,111.084z"/>
	</g>
	<g>
		<path style="fill:#E0E0E0;" d="M203.152,167.27h43.02c0,0,0.006-9.849-5.079-9.849c-6.708,0-7.887,6.106-7.887,6.106
			s0-18.382-9.249-15.685c-8.752,2.552-9.741,14.319-9.741,14.319s-1.575-5.917-6.319-2.583
			C203.152,162.913,203.152,167.27,203.152,167.27z"/>
	</g>
	<g>
		<g>
			<polygon style="fill:#E0E0E0;" points="290.3,376.618 274.61,440.461 282.887,440.461 297.456,376.618 			"/>
			<polygon style="fill:#E0E0E0;" points="319.202,376.618 332.689,440.461 341.222,440.461 326.083,376.618 			"/>
			<polygon style="fill:#E0E0E0;" points="279.606,324.953 288.627,372.313 298.878,372.313 289.242,324.953 			"/>
			<polygon style="fill:#E0E0E0;" points="122.488,376.618 106.799,440.461 115.075,440.461 129.645,376.618 			"/>
			<polygon style="fill:#E0E0E0;" points="151.39,376.618 164.878,440.461 173.411,440.461 158.271,376.618 			"/>
			<polygon style="fill:#E0E0E0;" points="111.795,324.953 120.816,372.313 131.067,372.313 121.431,324.953 			"/>
			<rect x="93.343" y="320.648" style="fill:#F0F0F0;" width="205.839" height="8.611"/>
			<rect x="96.214" y="338.28" style="fill:#F0F0F0;" width="205.839" height="8.611"/>
			<rect x="99.494" y="354.681" style="fill:#F0F0F0;" width="205.839" height="8.611"/>
			<rect x="112.467" y="372.313" style="fill:#F0F0F0;" width="219.781" height="8.611"/>
		</g>
	</g>
	<g>
		<path style="fill:#F0F0F0;" d="M536.902,375.265c-13.33-3.727-24.978-13.109-31.458-25.34c-6.48-12.23-7.702-27.138-3.299-40.26
			c3.436-10.24,10.057-19.254,12.896-29.675c3.223-11.829,1.303-24.377-0.686-36.475c-1.989-12.098-4.017-24.607-0.996-36.49
			c3.021-11.882,12.532-23.041,24.763-23.885c11.345-0.783,21.824,7.623,26.558,17.963c4.734,10.34,4.765,22.196,3.659,33.514
			s-3.261,22.621-2.583,33.973c1.371,22.98,14.243,44.611,12.73,67.582c-0.788,11.962-5.417,19.618-13.34,28.614
			C558.316,372.543,546.961,377.643,536.902,375.265"/>
		<g>
			<g>
				<g>
					<path style="fill:#E0E0E0;" d="M540.728,264.55c0.339,0.005,0.036,39.444-0.676,88.079
						c-0.713,48.651-1.565,88.074-1.904,88.069c-0.339-0.005-0.036-39.436,0.676-88.087
						C539.536,303.976,540.389,264.545,540.728,264.55z"/>
				</g>
			</g>
			<g>
				<path style="fill:#E0E0E0;" d="M562.684,288.488c0.269,0.207-4.286,6.564-10.171,14.197
					c-5.887,7.636-10.876,13.656-11.144,13.449c-0.268-0.207,4.285-6.563,10.172-14.198
					C557.426,294.303,562.416,288.281,562.684,288.488z"/>
			</g>
			<g>
				<path style="fill:#E0E0E0;" d="M540.292,314.154c-0.208,0.267-4.794-2.958-10.24-7.203c-5.448-4.246-9.695-7.904-9.486-8.172
					c0.208-0.267,4.792,2.957,10.241,7.203C536.253,310.228,540.5,313.886,540.292,314.154z"/>
			</g>
			<g>
				<path style="fill:#E0E0E0;" d="M539.066,359.834c-0.242,0.256-5.177-4.08-11.451-9.183c-6.266-5.117-11.508-9.074-11.306-9.363
					c0.183-0.269,5.773,3.26,12.081,8.411C534.707,354.837,539.293,359.601,539.066,359.834z"/>
			</g>
			<g>
				<path style="fill:#E0E0E0;" d="M564.596,331.597c0.264,0.212-4.732,6.869-11.158,14.865c-6.428,8-11.852,14.31-12.116,14.098
					c-0.264-0.212,4.731-6.867,11.159-14.867C558.907,337.697,564.331,331.385,564.596,331.597z"/>
			</g>
		</g>
	</g>
</g>
<g id="Background_1" style="display:none;">
	<path style="display:inline;fill:#F0F0F0;" d="M143.648,100.57c93.249-57.585,250.005,128.499,318.224,125.721
		c68.219-2.778,158.636,45.765,128.797,120.653c-33.129,83.144-264.99,48.785-361.716,3.688
		C132.227,305.536,55.694,154.885,143.648,100.57z"/>
</g>
<g id="Floor">
	<g>
		<path style="fill:#263238;" d="M668.869,441.303c0,0.149-131.58,0.269-293.855,0.269c-162.331,0-293.884-0.121-293.884-0.269
			c0-0.149,131.552-0.27,293.884-0.27C537.289,441.034,668.869,441.154,668.869,441.303z"/>
	</g>
</g>
<g id="Plant">
	<g>
		<path style="fill:#E8505B;" d="M491.602,396.458c-2.4,0.105-4.642,1.428-6.21,3.248c-1.568,1.82-2.519,4.1-3.12,6.426
			c-1.163,4.5-0.379,9.792,0.94,14.249c4.846-1.779,7.798-6.988,9.13-9.725C494.448,406.33,495.626,397.234,491.602,396.458"/>
		<path style="fill:#E8505B;" d="M476.265,425.883c1.515-2.215,1.524-5.277,0.292-7.661c-1.233-2.384-3.577-4.09-6.149-4.856
			c-1.189-0.354-2.567-0.495-3.593,0.203c-0.959,0.652-1.365,1.92-1.231,3.072c0.134,1.152,0.728,2.203,1.425,3.13
			C469.4,422.95,472.297,425.588,476.265,425.883"/>
		<g>
			<path style="fill:#455A64;" d="M476.224,441.319c0.035,0.005,0.12-0.332,0.239-0.947c0.12-0.615,0.276-1.508,0.435-2.618
				c0.305-2.212,0.67-5.337,0.227-8.773c-0.446-3.441-1.839-6.375-3.29-8.118c-0.717-0.88-1.403-1.499-1.913-1.871
				c-0.509-0.375-0.818-0.538-0.835-0.514c-0.067,0.082,1.133,0.833,2.457,2.61c1.336,1.751,2.629,4.609,3.065,7.961
				c0.433,3.354,0.134,6.445-0.077,8.66C476.303,439.93,476.147,441.308,476.224,441.319z"/>
		</g>
		<g>
			<path style="fill:#455A64;" d="M490.093,403.306c-0.033-0.014-0.287,0.5-0.717,1.442c-0.432,0.942-1.033,2.314-1.758,4.018
				c-1.451,3.407-3.377,8.147-5.376,13.433c-1.998,5.288-3.688,10.118-4.854,13.633c-0.583,1.757-1.04,3.184-1.339,4.176
				c-0.3,0.991-0.45,1.544-0.416,1.556c0.034,0.011,0.249-0.52,0.608-1.491c0.384-1.059,0.888-2.446,1.495-4.12
				c1.254-3.482,2.997-8.287,4.993-13.569c1.997-5.28,3.867-10.036,5.23-13.477c0.652-1.657,1.192-3.031,1.604-4.079
				C489.936,403.861,490.127,403.32,490.093,403.306z"/>
		</g>
		<path style="fill:#E8505B;" d="M481.31,430.3c3.148-4.701,8.686-7.707,14.343-7.785c1.44-0.02,3.152,0.323,3.716,1.648
			c0.565,1.328-0.382,2.805-1.421,3.806c-4.325,4.165-11.293,5.297-16.713,2.714"/>
		<g>
			<path style="fill:#455A64;" d="M493.175,426.049c-0.003-0.036-0.334-0.029-0.935,0.014c-0.302,0.016-0.669,0.05-1.089,0.134
				c-0.421,0.078-0.908,0.14-1.425,0.296c-1.051,0.25-2.268,0.689-3.563,1.298c-1.281,0.636-2.631,1.459-3.921,2.494
				c-1.277,1.052-2.359,2.205-3.244,3.329c-0.861,1.143-1.54,2.244-1.999,3.222c-0.258,0.475-0.418,0.939-0.581,1.335
				c-0.168,0.394-0.277,0.747-0.354,1.038c-0.165,0.58-0.239,0.903-0.205,0.913c0.097,0.032,0.465-1.249,1.467-3.117
				c0.492-0.938,1.188-1.994,2.049-3.094c0.885-1.081,1.949-2.196,3.195-3.222c1.259-1.009,2.567-1.823,3.806-2.468
				c1.253-0.618,2.428-1.083,3.448-1.373C491.857,426.248,493.186,426.15,493.175,426.049z"/>
		</g>
	</g>
</g>
<g id="Device">
	<g>
		<g>
			<g>
				<g>
					<path style="fill:#263238;" d="M434.943,344.601l-99.881-0.462c-12.013-0.055-21.707-9.836-21.657-21.849l1.059-250.404
						c0.051-12.02,9.838-21.721,21.858-21.666l99.881,0.461c12.013,0.056,21.707,9.837,21.656,21.849L456.8,322.936
						C456.749,334.956,446.962,344.657,434.943,344.601z"/>
				</g>
				<g>
					<path style="fill:#FFFFFF;" d="M435.538,59.455l-19.365-0.089c-2.597-0.012-4.712,2.18-4.723,4.894l-0.016,3.513
						c-0.011,2.715-2.126,4.906-4.723,4.894l-37.747-0.174c-2.597-0.012-4.693-2.223-4.682-4.938l0.015-3.513
						c0.011-2.715-2.085-4.926-4.682-4.937l-6.811-0.032l-16.949-0.078c-8.418-0.039-15.272,6.755-15.308,15.173l-1.033,244.412
						c-0.036,8.414,6.754,15.264,15.167,15.303l99.682,0.46c8.417,0.039,15.272-6.755,15.308-15.173l1.033-244.413
						C450.74,66.344,443.951,59.494,435.538,59.455z"/>
				</g>
			</g>
		</g>
		<g>
			
				<rect x="374.357" y="89.42" transform="matrix(1 0.0046 -0.0046 1 0.4277 -1.7863)" style="fill:#455A64;" width="25.717" height="4.719"/>
		</g>
		<g>
			<g>
				<path style="fill:#455A64;" d="M346.397,121.127c1.346-0.565,2.303-1.952,2.311-3.587c0.009-2.142-1.612-3.886-3.621-3.896
					c-2.008-0.009-3.644,1.72-3.652,3.862c-0.007,1.65,0.957,3.055,2.317,3.621c-3.061,0.461-4.366,2.488-4.926,4.231
					c1.275,1.446,3.044,2.44,5.046,2.72l2.241,0.01c2.035-0.268,3.834-1.273,5.124-2.741
					C350.689,123.597,349.407,121.582,346.397,121.127z"/>
				<g>
					<path style="fill:#455A64;" d="M345.027,128.168c-0.004-0.062,0.737-0.024,1.995-0.357c1.233-0.329,3.041-1.164,4.434-3.022
						c0.68-0.92,1.256-2.076,1.484-3.406c0.22-1.321,0.173-2.809-0.37-4.223c-0.249-0.712-0.625-1.398-1.099-2.028
						c-0.464-0.637-1.04-1.216-1.707-1.692c-1.313-0.985-2.999-1.539-4.737-1.556c-1.739,0.016-3.425,0.57-4.739,1.555
						c-0.667,0.477-1.243,1.055-1.707,1.692c-0.474,0.63-0.849,1.316-1.099,2.028c-0.543,1.414-0.589,2.902-0.37,4.223
						c0.228,1.33,0.805,2.486,1.485,3.406c1.392,1.857,3.2,2.692,4.433,3.021C344.29,128.144,345.031,128.107,345.027,128.168
						c0,0.018-0.182,0.026-0.53,0.026c-0.348,0.006-0.866-0.039-1.514-0.186c-1.278-0.277-3.182-1.082-4.677-2.995
						c-0.73-0.947-1.356-2.152-1.616-3.55c-0.251-1.388-0.219-2.961,0.343-4.466c0.259-0.757,0.652-1.488,1.15-2.16
						c0.489-0.68,1.098-1.297,1.805-1.807c1.393-1.053,3.191-1.65,5.041-1.665c1.849,0.016,3.647,0.613,5.039,1.665
						c0.707,0.51,1.315,1.128,1.804,1.807c0.498,0.672,0.891,1.403,1.15,2.16c0.561,1.505,0.594,3.077,0.343,4.466
						c-0.26,1.398-0.886,2.603-1.616,3.55c-1.495,1.912-3.399,2.718-4.677,2.995c-0.648,0.147-1.166,0.192-1.514,0.186
						C345.208,128.195,345.027,128.186,345.027,128.168z"/>
				</g>
			</g>
			<g>
				<g>
					<path style="fill:#E0E0E0;" d="M441.789,135.628c-0.001-0.021,0.257-0.001,0.742-0.099c0.475-0.1,1.207-0.342,1.907-1.004
						c0.701-0.644,1.304-1.78,1.205-3.201c-0.007-1.421-0.015-3.057-0.024-4.897c-0.012-3.69-0.027-8.197-0.044-13.427
						c-0.003-1.309-0.007-2.663-0.01-4.06c0.081-1.363-0.626-2.764-1.871-3.481c-1.233-0.78-2.841-0.439-4.395-0.512
						c-1.567,0.003-3.175,0.006-4.822,0.009c-26.366,0.019-62.764,0.046-102.966,0.076c-1.179-0.004-2.331,0.59-3.001,1.552
						c-0.346,0.471-0.553,1.034-0.637,1.607c-0.071,0.559-0.028,1.216-0.04,1.827c0,2.482-0.001,4.949-0.001,7.397
						c0.002,4.892,0.003,9.713,0.005,14.45c0.037,1.112,0.621,2.175,1.519,2.813c0.443,0.325,0.96,0.546,1.499,0.637
						c0.525,0.094,1.118,0.051,1.701,0.062c2.327,0.001,4.631,0.002,6.911,0.004c4.56,0.003,9.025,0.006,13.381,0.009
						c17.421,0.021,33.11,0.04,46.291,0.056c13.166,0.035,23.823,0.063,31.208,0.083c3.673,0.021,6.529,0.038,8.485,0.049
						c0.959,0.011,1.693,0.02,2.207,0.026C441.534,135.61,441.789,135.628,441.789,135.628s-0.255,0.018-0.752,0.027
						c-0.513,0.006-1.248,0.015-2.207,0.026c-1.956,0.011-4.812,0.028-8.485,0.049c-7.384,0.02-18.041,0.048-31.208,0.083
						c-13.181,0.016-28.87,0.035-46.291,0.056c-4.356,0.003-8.82,0.006-13.381,0.009c-2.28,0.001-4.585,0.002-6.911,0.004
						c-0.578-0.012-1.16,0.039-1.79-0.068c-0.614-0.104-1.203-0.355-1.707-0.724c-1.021-0.724-1.688-1.935-1.731-3.201
						c-0.004-4.744-0.009-9.573-0.013-14.473c0-2.448-0.001-4.914-0.001-7.397c0.014-0.629-0.036-1.221,0.045-1.899
						c0.095-0.655,0.335-1.298,0.728-1.836c0.763-1.097,2.083-1.777,3.426-1.771c40.201,0.03,76.6,0.057,102.966,0.076
						c1.647,0.003,3.255,0.006,4.822,0.009c0.783,0.002,1.557,0.003,2.32,0.005c0.78-0.024,1.584,0.174,2.243,0.572
						c1.351,0.776,2.11,2.332,2.015,3.766c-0.003,1.398-0.007,2.751-0.01,4.06c-0.017,5.23-0.032,9.737-0.044,13.427
						c-0.009,1.84-0.017,3.476-0.024,4.897c0.086,1.45-0.557,2.636-1.288,3.278c-0.731,0.668-1.484,0.896-1.969,0.98
						C442.047,135.663,441.789,135.628,441.789,135.628z"/>
				</g>
				<rect x="360.983" y="112.792" style="fill:#455A64;" width="29.085" height="2.181"/>
				<rect x="360.983" y="125.12" style="fill:#455A64;" width="50.959" height="2.181"/>
				<rect x="360.983" y="118.806" style="fill:#455A64;" width="73.85" height="2.181"/>
			</g>
		</g>
		<g>
			<g>
				<path style="fill:#455A64;" d="M346.397,199.338c1.346-0.564,2.303-1.952,2.311-3.587c0.009-2.142-1.612-3.886-3.621-3.895
					c-2.008-0.009-3.644,1.72-3.652,3.862c-0.007,1.65,0.957,3.055,2.317,3.621c-3.061,0.461-4.366,2.488-4.926,4.231
					c1.275,1.446,3.044,2.439,5.046,2.72l2.241,0.01c2.035-0.268,3.834-1.272,5.124-2.741
					C350.689,201.807,349.407,199.792,346.397,199.338z"/>
				<g>
					<path style="fill:#455A64;" d="M345.027,206.378c-0.004-0.062,0.737-0.024,1.995-0.357c1.233-0.329,3.041-1.164,4.434-3.022
						c0.68-0.92,1.256-2.076,1.484-3.406c0.22-1.321,0.173-2.809-0.37-4.223c-0.249-0.712-0.625-1.398-1.099-2.028
						c-0.464-0.638-1.04-1.216-1.707-1.692c-1.313-0.985-2.999-1.539-4.737-1.556c-1.739,0.016-3.425,0.57-4.739,1.555
						c-0.667,0.477-1.243,1.055-1.707,1.692c-0.474,0.63-0.849,1.316-1.099,2.028c-0.543,1.414-0.589,2.902-0.37,4.223
						c0.228,1.33,0.805,2.486,1.485,3.406c1.392,1.858,3.2,2.692,4.433,3.021C344.29,206.354,345.031,206.317,345.027,206.378
						c0,0.018-0.182,0.026-0.53,0.026c-0.348,0.006-0.866-0.039-1.514-0.186c-1.278-0.277-3.182-1.082-4.677-2.994
						c-0.73-0.947-1.356-2.152-1.616-3.55c-0.251-1.388-0.219-2.961,0.343-4.466c0.259-0.757,0.652-1.488,1.15-2.16
						c0.489-0.68,1.098-1.297,1.805-1.807c1.393-1.053,3.191-1.65,5.041-1.665c1.849,0.016,3.647,0.613,5.039,1.665
						c0.707,0.51,1.315,1.128,1.804,1.807c0.498,0.672,0.891,1.403,1.15,2.16c0.561,1.505,0.594,3.077,0.343,4.465
						c-0.26,1.398-0.886,2.603-1.616,3.55c-1.495,1.912-3.399,2.718-4.677,2.995c-0.648,0.147-1.166,0.192-1.514,0.186
						C345.208,206.405,345.027,206.396,345.027,206.378z"/>
				</g>
			</g>
			<g>
				<g>
					<path style="fill:#E0E0E0;" d="M441.789,213.838c-0.001-0.022,0.257-0.001,0.742-0.099c0.475-0.1,1.207-0.342,1.907-1.004
						c0.701-0.644,1.304-1.78,1.205-3.201c-0.007-1.421-0.015-3.057-0.024-4.897c-0.012-3.69-0.027-8.197-0.044-13.427
						c-0.003-1.309-0.007-2.663-0.01-4.06c0.081-1.362-0.626-2.764-1.871-3.481c-1.233-0.78-2.841-0.439-4.395-0.512
						c-1.567,0.003-3.175,0.006-4.822,0.009c-26.366,0.02-62.764,0.046-102.966,0.076c-1.179-0.004-2.331,0.59-3.001,1.552
						c-0.346,0.471-0.553,1.034-0.637,1.607c-0.071,0.559-0.028,1.216-0.04,1.827c0,2.483-0.001,4.949-0.001,7.397
						c0.002,4.892,0.003,9.713,0.005,14.45c0.037,1.112,0.621,2.175,1.519,2.813c0.443,0.325,0.96,0.546,1.499,0.637
						c0.525,0.094,1.118,0.051,1.701,0.062c2.327,0.001,4.631,0.002,6.911,0.003c4.56,0.003,9.025,0.006,13.381,0.009
						c17.421,0.021,33.11,0.04,46.291,0.056c13.166,0.035,23.823,0.063,31.208,0.083c3.673,0.021,6.529,0.038,8.485,0.049
						c0.959,0.011,1.693,0.02,2.207,0.026C441.534,213.82,441.789,213.838,441.789,213.838s-0.255,0.018-0.752,0.027
						c-0.513,0.006-1.248,0.015-2.207,0.026c-1.956,0.011-4.812,0.028-8.485,0.049c-7.384,0.02-18.041,0.048-31.208,0.083
						c-13.181,0.016-28.87,0.035-46.291,0.056c-4.356,0.003-8.82,0.006-13.381,0.009c-2.28,0.001-4.585,0.002-6.911,0.004
						c-0.578-0.012-1.16,0.039-1.79-0.068c-0.614-0.104-1.203-0.355-1.707-0.724c-1.021-0.725-1.688-1.935-1.731-3.202
						c-0.004-4.744-0.009-9.573-0.013-14.473c0-2.448-0.001-4.914-0.001-7.397c0.014-0.628-0.036-1.22,0.045-1.899
						c0.095-0.655,0.335-1.298,0.728-1.836c0.763-1.096,2.083-1.777,3.426-1.771c40.201,0.03,76.6,0.057,102.966,0.076
						c1.647,0.003,3.255,0.006,4.822,0.009c0.783,0.001,1.557,0.003,2.32,0.005c0.78-0.024,1.584,0.174,2.243,0.572
						c1.351,0.776,2.11,2.332,2.015,3.766c-0.003,1.398-0.007,2.751-0.01,4.06c-0.017,5.23-0.032,9.737-0.044,13.427
						c-0.009,1.84-0.017,3.476-0.024,4.897c0.086,1.45-0.557,2.636-1.288,3.278c-0.731,0.668-1.484,0.895-1.969,0.98
						C442.047,213.873,441.789,213.838,441.789,213.838z"/>
				</g>
				<rect x="360.396" y="191.002" style="fill:#455A64;" width="29.085" height="2.181"/>
				<rect x="360.983" y="203.33" style="fill:#455A64;" width="50.959" height="2.181"/>
				<rect x="360.983" y="197.016" style="fill:#455A64;" width="73.85" height="2.181"/>
			</g>
		</g>
		<g>
			<g>
				<path style="fill:#455A64;" d="M346.397,238.443c1.346-0.564,2.303-1.952,2.311-3.587c0.009-2.142-1.612-3.886-3.621-3.896
					c-2.008-0.009-3.644,1.72-3.652,3.862c-0.007,1.65,0.957,3.055,2.317,3.621c-3.061,0.461-4.366,2.488-4.926,4.231
					c1.275,1.446,3.044,2.439,5.046,2.72l2.241,0.01c2.035-0.268,3.834-1.272,5.124-2.741
					C350.689,240.912,349.407,238.897,346.397,238.443z"/>
				<g>
					<path style="fill:#455A64;" d="M345.027,245.484c-0.004-0.062,0.737-0.024,1.995-0.357c1.233-0.329,3.041-1.164,4.434-3.022
						c0.68-0.92,1.256-2.076,1.484-3.406c0.22-1.321,0.173-2.809-0.37-4.223c-0.249-0.712-0.625-1.398-1.099-2.028
						c-0.464-0.637-1.04-1.216-1.707-1.692c-1.313-0.985-2.999-1.539-4.737-1.556c-1.739,0.016-3.425,0.57-4.739,1.555
						c-0.667,0.477-1.243,1.055-1.707,1.692c-0.474,0.63-0.849,1.316-1.099,2.028c-0.543,1.414-0.589,2.902-0.37,4.223
						c0.228,1.33,0.805,2.486,1.485,3.406c1.392,1.858,3.2,2.692,4.433,3.021C344.29,245.459,345.031,245.422,345.027,245.484
						c0,0.018-0.182,0.026-0.53,0.026c-0.348,0.006-0.866-0.039-1.514-0.186c-1.278-0.277-3.182-1.082-4.677-2.994
						c-0.73-0.947-1.356-2.152-1.616-3.55c-0.251-1.388-0.219-2.961,0.343-4.466c0.259-0.757,0.652-1.488,1.15-2.16
						c0.489-0.68,1.098-1.297,1.805-1.807c1.393-1.053,3.191-1.65,5.041-1.665c1.849,0.016,3.647,0.613,5.039,1.665
						c0.707,0.51,1.315,1.128,1.804,1.807c0.498,0.672,0.891,1.403,1.15,2.16c0.561,1.505,0.594,3.077,0.343,4.466
						c-0.26,1.398-0.886,2.603-1.616,3.55c-1.495,1.912-3.399,2.718-4.677,2.995c-0.648,0.147-1.166,0.192-1.514,0.186
						C345.208,245.51,345.027,245.501,345.027,245.484z"/>
				</g>
			</g>
			<g>
				<g>
					<path style="fill:#E0E0E0;" d="M441.789,252.943c-0.001-0.022,0.257-0.001,0.742-0.099c0.475-0.1,1.207-0.342,1.907-1.004
						c0.701-0.644,1.304-1.78,1.205-3.201c-0.007-1.421-0.015-3.057-0.024-4.897c-0.012-3.69-0.027-8.197-0.044-13.427
						c-0.003-1.309-0.007-2.663-0.01-4.06c0.081-1.362-0.626-2.764-1.871-3.48c-1.233-0.78-2.841-0.439-4.395-0.512
						c-1.567,0.003-3.175,0.006-4.822,0.009c-26.366,0.02-62.764,0.046-102.966,0.076c-1.179-0.004-2.331,0.59-3.001,1.552
						c-0.346,0.471-0.553,1.034-0.637,1.607c-0.071,0.559-0.028,1.216-0.04,1.827c0,2.483-0.001,4.949-0.001,7.397
						c0.002,4.892,0.003,9.713,0.005,14.45c0.037,1.112,0.621,2.175,1.519,2.813c0.443,0.325,0.96,0.546,1.499,0.638
						c0.525,0.094,1.118,0.051,1.701,0.062c2.327,0.001,4.631,0.002,6.911,0.003c4.56,0.003,9.025,0.006,13.381,0.009
						c17.421,0.021,33.11,0.04,46.291,0.056c13.166,0.035,23.823,0.063,31.208,0.083c3.673,0.021,6.529,0.038,8.485,0.049
						c0.959,0.011,1.693,0.02,2.207,0.026C441.534,252.925,441.789,252.943,441.789,252.943s-0.255,0.018-0.752,0.027
						c-0.513,0.006-1.248,0.015-2.207,0.026c-1.956,0.011-4.812,0.028-8.485,0.049c-7.384,0.02-18.041,0.048-31.208,0.083
						c-13.181,0.016-28.87,0.035-46.291,0.056c-4.356,0.003-8.82,0.006-13.381,0.009c-2.28,0.001-4.585,0.002-6.911,0.004
						c-0.578-0.012-1.16,0.039-1.79-0.068c-0.614-0.104-1.203-0.355-1.707-0.724c-1.021-0.724-1.688-1.935-1.731-3.201
						c-0.004-4.744-0.009-9.573-0.013-14.473c0-2.448-0.001-4.914-0.001-7.397c0.014-0.629-0.036-1.22,0.045-1.899
						c0.095-0.655,0.335-1.298,0.728-1.836c0.763-1.097,2.083-1.777,3.426-1.771c40.201,0.03,76.6,0.057,102.966,0.076
						c1.647,0.003,3.255,0.006,4.822,0.009c0.783,0.002,1.557,0.003,2.32,0.005c0.78-0.024,1.584,0.174,2.243,0.572
						c1.351,0.776,2.11,2.331,2.015,3.766c-0.003,1.398-0.007,2.752-0.01,4.06c-0.017,5.23-0.032,9.737-0.044,13.427
						c-0.009,1.84-0.017,3.476-0.024,4.897c0.086,1.45-0.557,2.636-1.288,3.278c-0.731,0.668-1.484,0.896-1.969,0.98
						C442.047,252.978,441.789,252.943,441.789,252.943z"/>
				</g>
				<rect x="360.983" y="230.107" style="fill:#455A64;" width="29.085" height="2.181"/>
				<rect x="360.983" y="242.435" style="fill:#455A64;" width="50.959" height="2.181"/>
				<rect x="360.983" y="236.121" style="fill:#455A64;" width="73.85" height="2.181"/>
			</g>
		</g>
		<g>
			<g>
				<path style="fill:#455A64;" d="M346.397,277.548c1.346-0.565,2.303-1.952,2.311-3.587c0.009-2.142-1.612-3.886-3.621-3.896
					c-2.008-0.009-3.644,1.72-3.652,3.862c-0.007,1.65,0.957,3.055,2.317,3.621c-3.061,0.461-4.366,2.488-4.926,4.231
					c1.275,1.446,3.044,2.44,5.046,2.72l2.241,0.01c2.035-0.268,3.834-1.272,5.124-2.741
					C350.689,280.017,349.407,278.002,346.397,277.548z"/>
				<g>
					<path style="fill:#455A64;" d="M345.027,284.589c-0.004-0.062,0.737-0.024,1.995-0.357c1.233-0.329,3.041-1.164,4.434-3.022
						c0.68-0.92,1.256-2.076,1.484-3.406c0.22-1.321,0.173-2.809-0.37-4.223c-0.249-0.712-0.625-1.398-1.099-2.028
						c-0.464-0.637-1.04-1.216-1.707-1.692c-1.313-0.985-2.999-1.539-4.737-1.556c-1.739,0.016-3.425,0.57-4.739,1.555
						c-0.667,0.477-1.243,1.055-1.707,1.692c-0.474,0.63-0.849,1.316-1.099,2.028c-0.543,1.414-0.589,2.902-0.37,4.223
						c0.228,1.33,0.805,2.486,1.485,3.406c1.392,1.857,3.2,2.692,4.433,3.021C344.29,284.564,345.031,284.527,345.027,284.589
						c0,0.018-0.182,0.026-0.53,0.026c-0.348,0.006-0.866-0.039-1.514-0.186c-1.278-0.277-3.182-1.082-4.677-2.995
						c-0.73-0.947-1.356-2.152-1.616-3.55c-0.251-1.388-0.219-2.961,0.343-4.466c0.259-0.757,0.652-1.488,1.15-2.16
						c0.489-0.68,1.098-1.297,1.805-1.808c1.393-1.053,3.191-1.65,5.041-1.665c1.849,0.016,3.647,0.613,5.039,1.665
						c0.707,0.51,1.315,1.128,1.804,1.807c0.498,0.672,0.891,1.403,1.15,2.16c0.561,1.505,0.594,3.077,0.343,4.466
						c-0.26,1.398-0.886,2.603-1.616,3.55c-1.495,1.912-3.399,2.718-4.677,2.995c-0.648,0.147-1.166,0.192-1.514,0.186
						C345.208,284.615,345.027,284.607,345.027,284.589z"/>
				</g>
			</g>
			<g>
				<g>
					<path style="fill:#E0E0E0;" d="M441.789,292.048c-0.001-0.022,0.257-0.001,0.742-0.099c0.475-0.1,1.207-0.342,1.907-1.004
						c0.701-0.644,1.304-1.78,1.205-3.201c-0.007-1.421-0.015-3.057-0.024-4.897c-0.012-3.69-0.027-8.197-0.044-13.427
						c-0.003-1.309-0.007-2.663-0.01-4.06c0.081-1.362-0.626-2.764-1.871-3.48c-1.233-0.78-2.841-0.439-4.395-0.512
						c-1.567,0.003-3.175,0.006-4.822,0.009c-26.366,0.02-62.764,0.047-102.966,0.076c-1.179-0.004-2.331,0.59-3.001,1.552
						c-0.346,0.471-0.553,1.034-0.637,1.607c-0.071,0.559-0.028,1.216-0.04,1.827c0,2.482-0.001,4.949-0.001,7.397
						c0.002,4.892,0.003,9.713,0.005,14.45c0.037,1.112,0.621,2.175,1.519,2.813c0.443,0.325,0.96,0.546,1.499,0.637
						c0.525,0.094,1.118,0.051,1.701,0.062c2.327,0.001,4.631,0.002,6.911,0.004c4.56,0.003,9.025,0.006,13.381,0.009
						c17.421,0.021,33.11,0.04,46.291,0.056c13.166,0.035,23.823,0.063,31.208,0.083c3.673,0.021,6.529,0.038,8.485,0.049
						c0.959,0.011,1.693,0.02,2.207,0.026C441.534,292.03,441.789,292.048,441.789,292.048s-0.255,0.018-0.752,0.027
						c-0.513,0.006-1.248,0.015-2.207,0.026c-1.956,0.011-4.812,0.028-8.485,0.049c-7.384,0.02-18.041,0.048-31.208,0.083
						c-13.181,0.016-28.87,0.035-46.291,0.056c-4.356,0.003-8.82,0.006-13.381,0.009c-2.28,0.001-4.585,0.002-6.911,0.004
						c-0.578-0.012-1.16,0.039-1.79-0.068c-0.614-0.104-1.203-0.355-1.707-0.724c-1.021-0.725-1.688-1.935-1.731-3.202
						c-0.004-4.744-0.009-9.573-0.013-14.473c0-2.448-0.001-4.914-0.001-7.397c0.014-0.629-0.036-1.221,0.045-1.899
						c0.095-0.655,0.335-1.298,0.728-1.836c0.763-1.097,2.083-1.777,3.426-1.771c40.201,0.03,76.6,0.057,102.966,0.076
						c1.647,0.003,3.255,0.006,4.822,0.009c0.783,0.002,1.557,0.003,2.32,0.005c0.78-0.024,1.584,0.174,2.243,0.572
						c1.351,0.776,2.11,2.332,2.015,3.766c-0.003,1.398-0.007,2.751-0.01,4.06c-0.017,5.23-0.032,9.737-0.044,13.427
						c-0.009,1.84-0.017,3.476-0.024,4.897c0.086,1.45-0.557,2.636-1.288,3.278c-0.731,0.668-1.484,0.896-1.969,0.98
						C442.047,292.083,441.789,292.048,441.789,292.048z"/>
				</g>
				<rect x="360.983" y="269.212" style="fill:#455A64;" width="29.085" height="2.181"/>
				<rect x="360.983" y="281.54" style="fill:#455A64;" width="50.959" height="2.181"/>
				<rect x="360.983" y="275.226" style="fill:#455A64;" width="73.85" height="2.181"/>
			</g>
		</g>
		<g>
			<path style="fill:#455A64;" d="M379.639,311.24c-0.005,1.211-0.93,2.189-2.066,2.184c-1.136-0.006-2.052-0.992-2.047-2.203
				c0.005-1.211,0.93-2.19,2.066-2.184C378.727,309.041,379.644,310.028,379.639,311.24z"/>
		</g>
		<g>
			<path style="fill:#455A64;" d="M386.012,311.269c-0.005,1.211-0.93,2.189-2.066,2.184c-1.136-0.005-2.052-0.991-2.047-2.203
				c0.005-1.211,0.93-2.189,2.066-2.184C385.101,309.071,386.017,310.057,386.012,311.269z"/>
		</g>
		<g>
			<path style="fill:#455A64;" d="M392.385,311.298c-0.005,1.211-0.93,2.19-2.066,2.184c-1.136-0.005-2.052-0.991-2.047-2.203
				c0.005-1.211,0.93-2.189,2.066-2.184C391.473,309.1,392.39,310.086,392.385,311.298z"/>
		</g>
	</g>
</g>
<g id="Character">
	<g>
		<g>
			<g>
				<path style="fill:#E8505B;" d="M400.642,166.153l-109.999,7.931c-2.166,0.156-4.048-1.473-4.204-3.639l-1.654-22.934
					c-0.156-2.166,1.473-4.048,3.639-4.204l109.999-7.931c2.166-0.156,4.048,1.473,4.204,3.639l1.654,22.934
					C404.437,164.115,402.808,165.997,400.642,166.153z"/>
				
					<rect x="318.444" y="148.139" transform="matrix(0.9974 -0.0719 0.0719 0.9974 -9.8694 24.3325)" style="fill:#FAFAFA;" width="29.085" height="2.181"/>
				
					<rect x="319.303" y="159.648" transform="matrix(0.9974 -0.0719 0.0719 0.9974 -10.6667 25.2109)" style="fill:#FAFAFA;" width="50.959" height="2.181"/>
				
					<rect x="318.819" y="152.528" transform="matrix(0.9974 -0.0719 0.0719 0.9974 -10.1261 25.9803)" style="fill:#FAFAFA;" width="73.85" height="2.181"/>
				<g>
					<path style="fill:#FAFAFA;" d="M304.455,158.55c1.302-0.66,2.156-2.113,2.047-3.744c-0.145-2.137-1.888-3.76-3.892-3.625
						c-2.003,0.135-3.51,1.977-3.365,4.115c0.112,1.647,1.174,2.978,2.572,3.445c-3.02,0.68-4.176,2.795-4.609,4.574
						c1.376,1.351,3.212,2.214,5.229,2.35l2.236-0.151c2.01-0.413,3.732-1.545,4.913-3.102
						C308.912,160.705,307.489,158.787,304.455,158.55z"/>
					<g>
						<path style="fill:#FAFAFA;" d="M303.594,165.671c-0.008-0.061,0.734-0.077,1.964-0.5c1.207-0.417,2.95-1.38,4.205-3.333
							c0.612-0.967,1.103-2.161,1.235-3.504c0.124-1.333-0.029-2.814-0.672-4.185c-0.3-0.692-0.724-1.349-1.241-1.943
							c-0.509-0.602-1.125-1.138-1.824-1.565c-1.381-0.888-3.102-1.319-4.837-1.211c-1.733,0.141-3.375,0.815-4.615,1.892
							c-0.631,0.523-1.164,1.142-1.581,1.811c-0.427,0.662-0.753,1.374-0.95,2.102c-0.44,1.449-0.379,2.937-0.065,4.239
							c0.324,1.31,0.981,2.421,1.726,3.29c1.522,1.753,3.385,2.455,4.639,2.694C302.857,165.7,303.594,165.61,303.594,165.671
							c0.001,0.018-0.179,0.039-0.527,0.064c-0.346,0.031-0.866,0.023-1.523-0.077c-1.295-0.184-3.251-0.851-4.88-2.65
							c-0.797-0.892-1.507-2.049-1.867-3.425c-0.351-1.367-0.431-2.938,0.021-4.479c0.203-0.773,0.543-1.531,0.992-2.237
							c0.439-0.713,1.002-1.373,1.67-1.933c1.313-1.15,3.064-1.875,4.908-2.023c1.846-0.117,3.682,0.349,5.146,1.299
							c0.741,0.458,1.393,1.03,1.929,1.673c0.545,0.634,0.99,1.335,1.302,2.072c0.668,1.46,0.814,3.027,0.663,4.429
							c-0.159,1.413-0.696,2.66-1.356,3.657c-1.354,2.015-3.195,2.956-4.45,3.324c-0.636,0.193-1.149,0.276-1.496,0.294
							C303.777,165.685,303.595,165.689,303.594,165.671z"/>
					</g>
				</g>
			</g>
		</g>
		<g>
			<polygon style="fill:#E8505B;" points="263.616,433.14 262.151,441.627 275.227,442.579 275.274,434.241 			"/>
			<g>
				<path style="fill:#263238;" d="M269.503,433.257c0.108,0.012,0.003,1.747-0.234,3.874c-0.237,2.128-0.516,3.843-0.624,3.831
					c-0.108-0.012-0.003-1.746,0.234-3.874C269.116,434.96,269.396,433.245,269.503,433.257z"/>
			</g>
			<g>
				<path style="fill:#263238;" d="M275.232,441.663c-0.009,0.055-0.731-0.016-1.894-0.142c-1.304-0.145-2.843-0.316-4.545-0.504
					c-1.775-0.204-3.382-0.421-4.538-0.619c-1.157-0.197-1.864-0.365-1.855-0.416c0.009-0.055,0.73,0.016,1.894,0.142
					c1.304,0.145,2.844,0.315,4.545,0.504c1.775,0.204,3.381,0.421,4.537,0.619C274.533,441.443,275.241,441.611,275.232,441.663z"
					/>
			</g>
			<g>
				<g>
					<g>
						<g>
							<path style="fill:#E8505B;" d="M317.603,439.919l1.668-7.421l-13.88-3.214l-2.555,10.831l0.848,0.254
								c3.781,1.1,19.302,5.324,22.042,5.141C328.781,445.305,317.603,439.919,317.603,439.919z"/>
						</g>
					</g>
					<g>
						<g>
							<path style="fill:#EBEBEB;" d="M307.893,441.171c0.071-1.205-0.325-2.432-1.086-3.369c-0.762-0.937-1.816-1.583-3.011-1.76
								l-0.901,3.879L307.893,441.171z"/>
						</g>
					</g>
				</g>
				<g>
					<g>
						<path style="fill:#EBEBEB;" d="M323.017,442.756c0,0,3.857,2.149,3.184,2.711c-0.673,0.561-16.519-3.117-23.366-5.352
							l0.094-0.305l18.446,4.449C321.376,444.259,322.202,442.603,323.017,442.756z"/>
					</g>
				</g>
				<g>
					<g>
						<g>
							<path style="fill:#263238;" d="M302.714,439.751c-0.002,0.006,0.079,0.034,0.233,0.081c0.203,0.06,0.425,0.126,0.676,0.2
								c0.679,0.189,1.513,0.421,2.497,0.694c2.113,0.571,5.042,1.322,8.294,2.08c3.254,0.757,6.213,1.379,8.361,1.8
								c1.004,0.19,1.855,0.35,2.547,0.481c0.258,0.044,0.486,0.083,0.695,0.119c0.159,0.025,0.243,0.036,0.244,0.03
								c0.001-0.006-0.081-0.028-0.238-0.064c-0.207-0.045-0.433-0.095-0.688-0.15c-0.689-0.145-1.536-0.324-2.535-0.535
								c-2.14-0.452-5.094-1.092-8.346-1.849c-3.25-0.758-6.182-1.489-8.302-2.03c-0.99-0.253-1.828-0.467-2.51-0.641
								c-0.254-0.063-0.479-0.118-0.684-0.169C302.799,439.762,302.715,439.745,302.714,439.751z"/>
						</g>
					</g>
				</g>
				<g>
					<g>
						<g>
							<path style="fill:#263238;" d="M321.322,444.473c0.05,0.018,0.229-0.575,0.751-1.095c0.513-0.529,1.103-0.716,1.084-0.766
								c0-0.044-0.656,0.079-1.207,0.645C321.392,443.816,321.278,444.474,321.322,444.473z"/>
						</g>
					</g>
				</g>
				<g>
					<g>
						<g>
							<path style="fill:#263238;" d="M317.709,441.445c0.034,0.034,0.285-0.159,0.561-0.431c0.277-0.272,0.474-0.52,0.44-0.554
								c-0.033-0.034-0.285,0.159-0.561,0.431C317.873,441.163,317.676,441.411,317.709,441.445z"/>
						</g>
					</g>
				</g>
				<g>
					<g>
						<g>
							<path style="fill:#263238;" d="M316.724,440.59c0.023,0.042,0.276-0.054,0.565-0.213c0.289-0.159,0.505-0.322,0.482-0.364
								c-0.023-0.042-0.276,0.053-0.565,0.213C316.916,440.385,316.701,440.548,316.724,440.59z"/>
						</g>
					</g>
				</g>
				<g>
					<g>
						<g>
							<path style="fill:#263238;" d="M316.317,439.115c-0.011,0.046,0.303,0.163,0.703,0.26c0.399,0.097,0.732,0.139,0.744,0.092
								c0.011-0.046-0.303-0.163-0.703-0.26C316.661,439.11,316.328,439.069,316.317,439.115z"/>
						</g>
					</g>
				</g>
				<g>
					<g>
						<g>
							<path style="fill:#263238;" d="M316.288,438.135c-0.025,0.038,0.291,0.279,0.753,0.423c0.462,0.146,0.859,0.128,0.86,0.083
								c0.003-0.05-0.37-0.108-0.809-0.247C316.654,438.257,316.313,438.092,316.288,438.135z"/>
						</g>
					</g>
				</g>
				<g>
					<g>
						<g>
							<path style="fill:#263238;" d="M318.461,440.344c-0.005,0.019,0.327,0.14,0.893,0.202c0.282,0.031,0.622,0.041,0.998,0.011
								c0.188-0.022,0.381-0.026,0.595-0.098c0.102-0.038,0.219-0.098,0.285-0.226c0.068-0.125,0.031-0.292-0.052-0.388
								c-0.75-0.639-1.715-0.358-2.133,0.009c-0.227,0.185-0.357,0.385-0.429,0.527c-0.071,0.144-0.089,0.232-0.079,0.236
								c0.029,0.019,0.142-0.337,0.583-0.667c0.217-0.161,0.521-0.297,0.877-0.318c0.336-0.02,0.791,0.059,1.046,0.319
								c0.117,0.138,0.023,0.292-0.156,0.349c-0.169,0.061-0.372,0.074-0.551,0.098c-0.364,0.038-0.696,0.04-0.974,0.026
								C318.808,440.394,318.467,440.316,318.461,440.344z"/>
						</g>
					</g>
				</g>
				<g>
					<g>
						<g>
							<path style="fill:#263238;" d="M318.682,440.441c0.01,0.013,0.195-0.185,0.247-0.595c0.024-0.202,0.006-0.452-0.092-0.708
								c-0.112-0.234-0.251-0.554-0.637-0.627c-0.213-0.022-0.368,0.19-0.37,0.348c-0.02,0.16,0.019,0.31,0.059,0.434
								c0.081,0.254,0.189,0.469,0.296,0.638c0.216,0.338,0.413,0.494,0.426,0.479c0.021-0.018-0.141-0.201-0.321-0.541
								c-0.09-0.169-0.181-0.379-0.249-0.622c-0.079-0.217-0.084-0.575,0.149-0.564c0.228,0.03,0.405,0.305,0.499,0.515
								c0.095,0.225,0.125,0.451,0.118,0.638C318.791,440.216,318.654,440.428,318.682,440.441z"/>
						</g>
					</g>
				</g>
				<g>
					<g>
						<g>
							<path style="fill:#263238;" d="M303.879,436.019c-0.004,0.032,0.406,0.054,1.016,0.274c0.605,0.213,1.41,0.669,2.023,1.441
								c0.612,0.774,0.87,1.662,0.939,2.3c0.074,0.644,0.001,1.049,0.034,1.052c0.01,0.002,0.039-0.097,0.065-0.28
								c0.027-0.183,0.044-0.452,0.023-0.784c-0.039-0.658-0.288-1.589-0.926-2.396c-0.639-0.806-1.488-1.261-2.119-1.45
								c-0.318-0.098-0.584-0.142-0.768-0.158C303.982,436.004,303.879,436.009,303.879,436.019z"/>
						</g>
					</g>
				</g>
				<g>
					<g>
						<g>
							<path style="fill:#455A64;" d="M306.658,430.578c-0.046-0.011-0.397,1.253-0.782,2.823c-0.386,1.571-0.661,2.853-0.614,2.864
								c0.046,0.011,0.396-1.252,0.782-2.823C306.429,431.872,306.704,430.59,306.658,430.578z"/>
						</g>
					</g>
				</g>
				<g>
					<g>
						<g>
							<path style="fill:#263238;" d="M309.954,440.224c-0.016,0.042,0.854,0.401,1.979,0.671c1.125,0.274,2.062,0.353,2.068,0.309
								c0.007-0.05-0.912-0.205-2.027-0.476C310.859,440.459,309.971,440.176,309.954,440.224z"/>
						</g>
					</g>
				</g>
				<g>
					<g>
						<g>
							<path style="fill:#263238;" d="M307.235,439.588c-0.042,0.026,0.03,0.209,0.074,0.439c0.047,0.229,0.052,0.426,0.101,0.434
								c0.045,0.01,0.122-0.203,0.069-0.467C307.426,439.728,307.273,439.561,307.235,439.588z"/>
						</g>
					</g>
				</g>
				<g>
					<g>
						<g>
							<path style="fill:#263238;" d="M306.506,438.074c-0.041,0.025,0.015,0.19,0.125,0.369c0.11,0.179,0.232,0.304,0.272,0.279
								c0.041-0.025-0.015-0.19-0.125-0.369C306.669,438.174,306.547,438.049,306.506,438.074z"/>
						</g>
					</g>
				</g>
				<g>
					<g>
						<g>
							<path style="fill:#263238;" d="M305.175,437.151c-0.001,0.049,0.184,0.09,0.371,0.21c0.19,0.115,0.309,0.262,0.353,0.239
								c0.043-0.017-0.028-0.242-0.262-0.385C305.404,437.068,305.171,437.105,305.175,437.151z"/>
						</g>
					</g>
				</g>
				<g>
					<g>
						<g>
							<path style="fill:#263238;" d="M304.194,436.634c-0.027,0.039,0.036,0.129,0.141,0.201c0.105,0.071,0.212,0.097,0.238,0.058
								c0.027-0.039-0.036-0.129-0.141-0.201C304.328,436.62,304.221,436.594,304.194,436.634z"/>
						</g>
					</g>
				</g>
			</g>
			<path style="fill:#E5BAAB;" d="M389.917,161.442c-1.04-1.509-7.537,2.519-8.113,2.819c-0.558,0.292-1.029-0.52-0.495-0.764
				c0.767-0.35,8.735-4.223,7.728-5.714c-0.558-0.827-1.951,0.313-1.951,0.313s-7.188,4.172-7.64,3.452
				c-0.459-0.731,3.679-3.323,5.136-4.098c1.44-0.766,1.66-1.763,0.792-2.118c-0.592-0.243-5.111,2.027-6.534,2.827
				c-1.423,0.8-5.286,3.065-4.29,0.399c0.996-2.666,0.758-5.09,0.237-5.702c-0.521-0.611-1.561-0.109-1.496,0.773
				c0.053,0.712-0.228,1.926-0.476,2.83c-0.204,0.745-0.461,1.506-0.971,2.087c-0.279,0.318-0.534,0.612-0.773,0.892l-0.019-0.034
				l-0.753,0.953c-0.936,1.133-1.407,1.776-1.407,1.776l0.002,0.002l-37.616,47.6l2.021,19.772l43.63-59.263l-0.027-0.049
				c3.11-0.832,6.416-1.79,8.208-2.533c3.914-1.624,3.773-1.977,3.506-2.401c-0.717-1.137-6.991,2.596-6.108,1.012
				C383.393,164.688,390.715,162.6,389.917,161.442z"/>
			<path style="fill:#E5BAAB;" d="M283.474,195.538l5.246-30.702c0.592-0.753,1.458-1.879,2.444-3.249
				c0.468-0.651,1.05-1.213,1.709-1.669c0.8-0.554,1.892-1.247,2.608-1.439c0.886-0.24,1.02-1.431,0.242-1.731
				c-0.778-0.3-3.234,0.301-5.502,2.193c-2.268,1.892-1.379-2.67-1.085-4.339c0.294-1.669,0.963-6.874,0.521-7.371
				c-0.647-0.728-1.547-0.169-1.802,1.504c-0.258,1.693-1.373,6.637-2.247,6.439c-0.86-0.195,0.753-8.668,0.753-8.668
				s0.638-1.756-0.364-2.018c-1.807-0.473-2.86,8.661-2.938,9.533c-0.055,0.607-1.012,0.425-0.918-0.222
				c0.096-0.667,1.807-8.414-0.029-8.914c-1.408-0.383-0.935,7.505-2.183,8.915c-1.247,1.409,0.25-6.019-1.11-6.33
				c-0.507-0.115-0.9-0.132-1.145,4.259c-0.118,2.127,0.112,5.992,0.387,9.482c-0.208,1.138-6.257,34.23-6.665,39.169
				c-0.414,5.026,16.615,34.159,16.615,34.159l11.715-11.988L283.474,195.538z"/>
			<path style="fill:#E8505B;" d="M275.907,215.47c-0.402,0.903,7.02,11.27,10.772,19.133l3.357,21.89
				c-3.803,6.962-8.175,15.105-10.287,24.076c15.054,7.033,32.18,6.178,48.645,2.959l-3.492-24.126l5.748-24.036l14.208-17.133
				l-10.324-13.741l-11.304,12.059l-5.331,1.325c-4.862,1.208-13.842,0.412-18.415-1.632l0,0l-7.665-9.875L275.907,215.47z"/>
			<g>
				<path style="fill:#263238;" d="M312.393,255.128c0.025,0.053-0.818,0.528-2.294,1.035c-1.471,0.509-3.595,0.994-5.981,1.085
					c-2.387,0.084-4.541-0.245-6.045-0.645c-1.509-0.398-2.384-0.809-2.363-0.864c0.039-0.173,3.692,1.188,8.389,0.988
					C308.797,256.583,312.341,254.958,312.393,255.128z"/>
			</g>
			<g>
				<path style="fill:#263238;" d="M334.466,231.245c0.017,0.026-0.165,0.191-0.539,0.427c-0.373,0.238-0.954,0.524-1.718,0.754
					c-1.501,0.469-3.873,0.587-6.095-0.537c-2.216-1.138-3.514-3.127-4.017-4.617c-0.263-0.753-0.372-1.391-0.399-1.833
					c-0.029-0.442-0.003-0.686,0.029-0.688c0.096-0.011,0.122,0.974,0.714,2.387c0.568,1.396,1.842,3.225,3.91,4.286
					c2.073,1.049,4.301,1.005,5.765,0.645C333.606,231.719,334.419,231.161,334.466,231.245z"/>
			</g>
			<g>
				<path style="fill:#263238;" d="M342.921,220.385c-0.068,0.034-0.562-0.834-1.359-2.231c-0.797-1.398-1.912-3.318-3.212-5.397
					c-1.302-2.078-2.544-3.92-3.453-5.248c-0.908-1.328-1.473-2.151-1.413-2.197c0.054-0.042,0.722,0.703,1.711,1.981
					c0.989,1.277,2.286,3.097,3.596,5.188c1.308,2.091,2.378,4.053,3.095,5.5C342.604,219.429,342.982,220.355,342.921,220.385z"/>
			</g>
			<g>
				<path style="fill:#263238;" d="M293.337,208.033c0.033,0.066-0.873,0.579-2.344,1.386c-1.622,0.898-3.574,1.98-5.733,3.175
					c-2.138,1.232-4.072,2.346-5.679,3.272c-1.451,0.843-2.357,1.354-2.397,1.292c-0.038-0.059,0.798-0.679,2.203-1.605
					c1.404-0.926,3.381-2.149,5.616-3.412c2.235-1.262,4.303-2.324,5.82-3.049C292.343,208.366,293.306,207.97,293.337,208.033z"/>
			</g>
			<g>
				<path style="fill:#263238;" d="M289.307,227.226c0.133,0.067-0.293,1.153-0.719,2.513c-0.432,1.359-0.706,2.492-0.853,2.471
					c-0.138-0.017-0.09-1.222,0.357-2.628C288.533,228.175,289.184,227.161,289.307,227.226z"/>
			</g>
			<g>
				<g>
					<path style="fill:#E5BAAB;" d="M315.269,217.887c-0.181-2.227-0.276-4.758-0.276-4.758s5.392-1.319,4.985-7.015
						c-0.407-5.696-2.444-18.687-2.444-18.687l-10.63-3.771l-9.831,10.085l5.358,28.043l10.171-0.678
						C314.204,221,315.404,219.554,315.269,217.887z"/>
				</g>
				<g>
					<g>
						<path style="fill:#D78776;" d="M313.792,202.782c0.017,0.002,0.03,0.104-0.055,0.255c-0.084,0.146-0.285,0.326-0.593,0.36
							c-0.639,0.053-1.342-0.569-1.68-1.397c-0.17-0.42-0.227-0.862-0.191-1.253c0.019-0.383,0.185-0.786,0.484-0.93
							c0.142-0.075,0.297-0.089,0.423-0.045c0.123,0.043,0.206,0.122,0.253,0.198c0.096,0.159,0.052,0.268,0.037,0.262
							c-0.023,0.002-0.029-0.092-0.126-0.187c-0.092-0.098-0.291-0.172-0.484-0.038c-0.198,0.122-0.307,0.41-0.315,0.762
							c-0.017,0.349,0.041,0.74,0.193,1.114c0.298,0.742,0.913,1.3,1.394,1.296c0.238-0.001,0.421-0.116,0.514-0.216
							C313.742,202.86,313.77,202.775,313.792,202.782z"/>
					</g>
				</g>
			</g>
			<g>
				<path style="fill:#263238;" d="M316.084,183.078l0.212,0.299c-2.159-1.694-4.588-1.807-6.754-1.698
					c-2.505,0.126-4.929,0.704-7.213,1.741c-0.608,0.276-1.215,0.561-1.817,0.855c0.319-0.521,0.583-1.073,0.756-1.663
					c0.528-1.806,0.08-3.995-1.45-5.091c-1.573-1.127-3.989-0.723-5.212,0.776c-1.224,1.499-1.188,3.839-0.027,5.387
					c0.837,1.116,2.18,1.78,3.57,1.91c-0.401,0.264-0.791,0.542-1.162,0.85c-3.125,2.593-4.712,6.986-3.756,10.933
					c0.261,1.079,0.696,2.12,1.138,3.155c0.076,0.897,0.054,1.798-0.111,2.685c-0.403,2.165-1.727,4.232-3.731,5.143
					c-0.72,0.327-1.557,0.536-2.029,1.171c-0.526,0.708-0.402,1.726,0.004,2.51c0.715,1.381,2.163,2.264,3.667,2.658
					c0.237,0.062,0.482,0.105,0.728,0.132c-0.124,0.992-0.106,2.285,0.441,3.563c0,0,3.022,5.336,9.581,4.403l0.148-2.65
					l0.986,2.959c0,0,3.419,1.291,10.921-2.151c2.504-1.149-1.168-10.267-1.168-10.267c-1.873-1.845-1.272-4.923-1.272-4.923
					c-1.583,0.207-3.118-3.924-2.796-5.302c0.323-1.379,1.525-2.681,2.939-2.618c0.63,0.028,0.472,3.244,2.113,2.884
					c1.396-0.038,0.87-2.592,1.304-3.889c0.949-2.828,2.875-6.787,2.188-9.69C320.491,184.585,318.312,181.431,316.084,183.078z"/>
				<g>
					<path style="fill:#263238;" d="M290.411,192.206c-0.035,0.031-0.443-0.698-0.254-1.954c0.096-0.615,0.349-1.339,0.848-2.01
						c0.484-0.669,1.227-1.299,2.168-1.586c0.94-0.291,1.839-0.235,2.606-0.306c0.775-0.047,1.418-0.235,1.889-0.558
						c0.994-0.635,0.922-1.501,0.999-1.476c0.026-0.005,0.103,0.186,0.043,0.542c-0.054,0.354-0.32,0.844-0.827,1.234
						c-0.492,0.405-1.254,0.665-2.059,0.737c-0.803,0.097-1.68,0.066-2.496,0.325c-1.658,0.533-2.575,2.079-2.81,3.17
						C290.251,191.453,290.507,192.187,290.411,192.206z"/>
				</g>
				<g>
					<path style="fill:#263238;" d="M314.293,220.637c-0.075-0.066,0.62-0.687,1.164-2.009c0.536-1.286,0.839-3.391-0.132-5.333
						c-0.48-0.964-1.139-1.797-1.668-2.617c-0.543-0.811-0.932-1.642-1.102-2.377c-0.367-1.513,0.206-2.423,0.241-2.368
						c0.089,0.017-0.317,0.902,0.114,2.272c0.205,0.678,0.593,1.427,1.145,2.206c0.536,0.786,1.219,1.619,1.737,2.653
						c0.526,1.038,0.694,2.171,0.646,3.164c-0.054,0.999-0.317,1.875-0.644,2.549c-0.331,0.674-0.701,1.162-0.996,1.456
						C314.507,220.532,314.314,220.66,314.293,220.637z"/>
				</g>
			</g>
			<path style="fill:#263238;" d="M280.277,280.812l-21.128,153.281l20.958,0.637c0,0,21.42-134.919,22.833-134.129
				c1.413,0.789,15.727,58.218,15.098,61.737c-0.361,2.018-16.529,70.874-15.375,70.608c1.154-0.267,20.262,1.659,20.262,1.659
				s16.467-72.431,16.229-74.183c-0.578-4.263-11.402-81.475-11.402-81.475L280.277,280.812z"/>
			<g>
				<path style="fill:#455A64;" d="M310.855,302.451c-0.014,0.066-1.018-0.068-2.618-0.411c-1.6-0.342-3.792-0.909-6.164-1.693
					c-2.372-0.786-4.471-1.637-5.959-2.316c-1.489-0.678-2.376-1.169-2.347-1.23c0.032-0.069,0.971,0.302,2.49,0.891
					c1.518,0.589,3.623,1.38,5.98,2.161c2.357,0.778,4.518,1.397,6.088,1.829C309.895,302.115,310.871,302.377,310.855,302.451z"/>
			</g>
			<g>
				<g>
					<path style="fill:#455A64;" d="M316.71,433.978c0.141,0.03,0.136,0.602-0.011,1.277c-0.146,0.675-0.379,1.197-0.52,1.166
						c-0.141-0.03-0.136-0.602,0.011-1.277C316.337,434.469,316.57,433.947,316.71,433.978z"/>
				</g>
				<g>
					<path style="fill:#455A64;" d="M318.804,424.333c0.14,0.03,0.02,1.135-0.269,2.466c-0.289,1.332-0.638,2.387-0.778,2.356
						c-0.14-0.03-0.02-1.135,0.269-2.467C318.315,425.357,318.664,424.302,318.804,424.333z"/>
				</g>
				<g>
					<path style="fill:#455A64;" d="M320.898,414.688c0.141,0.03,0.02,1.135-0.269,2.466c-0.289,1.332-0.637,2.387-0.778,2.356
						c-0.141-0.031-0.02-1.135,0.269-2.467C320.409,415.712,320.758,414.657,320.898,414.688z"/>
				</g>
				<g>
					<path style="fill:#455A64;" d="M322.992,405.043c0.141,0.031,0.02,1.135-0.269,2.466c-0.289,1.332-0.638,2.387-0.778,2.356
						c-0.141-0.031-0.02-1.135,0.269-2.467C322.503,406.067,322.852,405.012,322.992,405.043z"/>
				</g>
				<g>
					<path style="fill:#455A64;" d="M325.086,395.398c0.141,0.031,0.02,1.135-0.269,2.466c-0.289,1.332-0.638,2.387-0.778,2.356
						c-0.141-0.031-0.02-1.135,0.269-2.467C324.597,396.422,324.946,395.367,325.086,395.398z"/>
				</g>
				<g>
					<path style="fill:#455A64;" d="M327.18,385.753c0.141,0.03,0.02,1.135-0.269,2.466c-0.289,1.332-0.637,2.387-0.778,2.356
						c-0.14-0.03-0.02-1.135,0.269-2.467C326.691,386.777,327.04,385.722,327.18,385.753z"/>
				</g>
				<g>
					<path style="fill:#455A64;" d="M329.274,376.108c0.141,0.031,0.02,1.135-0.269,2.466c-0.289,1.332-0.637,2.387-0.778,2.356
						c-0.14-0.03-0.02-1.135,0.269-2.467C328.785,377.132,329.134,376.077,329.274,376.108z"/>
				</g>
				<g>
					<path style="fill:#455A64;" d="M331.368,366.463c0.141,0.03,0.02,1.135-0.269,2.466c-0.289,1.332-0.638,2.387-0.778,2.356
						c-0.141-0.03-0.02-1.135,0.269-2.466C330.879,367.487,331.228,366.432,331.368,366.463z"/>
				</g>
				<g>
					<path style="fill:#455A64;" d="M331.95,356.76c0.142-0.02,0.409,1.059,0.596,2.408c0.103,0.741,0.16,1.411,0.166,1.858
						l0.001,0.051l-0.003,0.009c-0.125,0.361-0.231,0.568-0.294,0.554c-0.063-0.014-0.074-0.246-0.038-0.626l-0.002,0.059
						c-0.116-0.432-0.243-1.092-0.345-1.833C331.843,357.89,331.807,356.78,331.95,356.76z"/>
				</g>
				<g>
					<path style="fill:#455A64;" d="M330.597,346.984c0.142-0.02,0.409,1.059,0.596,2.408c0.187,1.35,0.223,2.46,0.08,2.48
						c-0.142,0.02-0.409-1.059-0.596-2.409C330.49,348.114,330.454,347.004,330.597,346.984z"/>
				</g>
				<g>
					<path style="fill:#455A64;" d="M329.244,337.207c0.142-0.02,0.409,1.059,0.596,2.408c0.187,1.35,0.223,2.46,0.08,2.48
						c-0.142,0.02-0.409-1.058-0.596-2.409C329.137,338.337,329.102,337.227,329.244,337.207z"/>
				</g>
				<g>
					<path style="fill:#455A64;" d="M327.891,327.431c0.142-0.02,0.409,1.059,0.596,2.408c0.187,1.35,0.223,2.46,0.08,2.48
						c-0.142,0.02-0.409-1.058-0.596-2.408C327.784,328.561,327.749,327.451,327.891,327.431z"/>
				</g>
				<g>
					<path style="fill:#455A64;" d="M326.538,317.654c0.142-0.02,0.409,1.059,0.596,2.408c0.187,1.35,0.223,2.46,0.08,2.48
						c-0.142,0.02-0.409-1.059-0.596-2.409C326.431,318.784,326.396,317.674,326.538,317.654z"/>
				</g>
				<g>
					<path style="fill:#455A64;" d="M325.185,307.878c0.142-0.02,0.409,1.059,0.596,2.408c0.187,1.35,0.223,2.46,0.08,2.48
						c-0.142,0.02-0.409-1.059-0.596-2.409C325.079,309.008,325.043,307.898,325.185,307.878z"/>
				</g>
				<g>
					<path style="fill:#455A64;" d="M323.832,298.102c0.142-0.02,0.409,1.059,0.596,2.408c0.187,1.35,0.223,2.46,0.08,2.48
						c-0.142,0.02-0.409-1.058-0.596-2.409C323.726,299.232,323.69,298.121,323.832,298.102z"/>
				</g>
				<g>
					<path style="fill:#455A64;" d="M322.813,290.737c0.142-0.02,0.335,0.519,0.429,1.203c0.095,0.684,0.056,1.254-0.087,1.274
						c-0.142,0.02-0.335-0.519-0.429-1.203C322.632,291.327,322.671,290.757,322.813,290.737z"/>
				</g>
			</g>
			<polygon style="fill:#455A64;" points="300.546,435.794 323.87,437.157 325.098,430.481 301.857,429.55 			"/>
			<polygon style="fill:#455A64;" points="257.773,434.08 281.097,435.442 282.325,428.767 259.084,427.836 			"/>
			<g>
				<g>
					<path style="fill:#455A64;" d="M298.618,301.395c-0.141-0.029-0.142-0.601-0.002-1.277c0.14-0.676,0.367-1.201,0.508-1.172
						c0.141,0.029,0.142,0.601,0.002,1.277C298.986,300.9,298.759,301.424,298.618,301.395z"/>
				</g>
				<g>
					<path style="fill:#455A64;" d="M296.653,311.017c-0.141-0.029-0.036-1.129,0.234-2.458c0.27-1.329,0.603-2.383,0.744-2.354
						c0.141,0.029,0.036,1.129-0.234,2.458C297.127,309.992,296.794,311.046,296.653,311.017z"/>
				</g>
				<g>
					<path style="fill:#455A64;" d="M294.728,320.647c-0.141-0.028-0.041-1.129,0.223-2.459c0.264-1.33,0.593-2.385,0.734-2.357
						c0.141,0.028,0.041,1.129-0.223,2.459C295.197,319.62,294.868,320.676,294.728,320.647z"/>
				</g>
				<g>
					<path style="fill:#455A64;" d="M292.847,330.286c-0.141-0.027-0.047-1.129,0.211-2.46c0.258-1.331,0.582-2.388,0.723-2.361
						c0.141,0.027,0.046,1.129-0.212,2.46C293.312,329.257,292.988,330.314,292.847,330.286z"/>
				</g>
				<g>
					<path style="fill:#455A64;" d="M291.015,339.939c-0.141-0.027-0.052-1.129,0.199-2.461c0.251-1.333,0.569-2.391,0.711-2.365
						c0.141,0.027,0.052,1.128-0.199,2.461C291.474,338.907,291.156,339.966,291.015,339.939z"/>
				</g>
				<g>
					<path style="fill:#455A64;" d="M289.238,349.597c-0.142-0.026-0.059-1.128,0.184-2.462c0.243-1.334,0.555-2.394,0.697-2.368
						c0.142,0.026,0.059,1.128-0.185,2.462C289.691,348.562,289.379,349.623,289.238,349.597z"/>
				</g>
				<g>
					<path style="fill:#455A64;" d="M287.52,359.265c-0.142-0.025-0.066-1.128,0.169-2.463c0.235-1.336,0.541-2.398,0.682-2.373
						c0.141,0.025,0.066,1.128-0.169,2.463C287.966,358.228,287.661,359.29,287.52,359.265z"/>
				</g>
				<g>
					<path style="fill:#455A64;" d="M285.864,368.944c-0.142-0.024-0.073-1.127,0.153-2.464c0.226-1.337,0.525-2.401,0.667-2.377
						c0.142,0.024,0.073,1.127-0.153,2.464C286.304,367.904,286.006,368.968,285.864,368.944z"/>
				</g>
				<g>
					<path style="fill:#455A64;" d="M284.276,378.633c-0.142-0.023-0.081-1.127,0.136-2.465c0.217-1.339,0.508-2.405,0.65-2.382
						c0.142,0.023,0.081,1.126-0.136,2.465C284.709,377.59,284.418,378.656,284.276,378.633z"/>
				</g>
				<g>
					<path style="fill:#455A64;" d="M282.758,388.334c-0.142-0.022-0.09-1.126,0.118-2.466c0.207-1.34,0.49-2.408,0.632-2.386
						c0.142,0.022,0.09,1.126-0.118,2.466C283.183,387.288,282.9,388.356,282.758,388.334z"/>
				</g>
				<g>
					<path style="fill:#455A64;" d="M281.314,398.046c-0.142-0.021-0.098-1.125,0.099-2.466c0.197-1.342,0.472-2.412,0.614-2.391
						c0.142,0.021,0.098,1.125-0.099,2.467C281.731,396.997,281.456,398.067,281.314,398.046z"/>
				</g>
				<g>
					<path style="fill:#455A64;" d="M279.945,407.77c-0.142-0.02-0.107-1.125,0.079-2.467c0.186-1.343,0.453-2.416,0.595-2.396
						c0.142,0.02,0.107,1.124-0.079,2.467C280.354,406.717,280.088,407.79,279.945,407.77z"/>
				</g>
				<g>
					<path style="fill:#455A64;" d="M278.655,417.504c-0.143-0.018-0.116-1.124,0.059-2.468c0.176-1.345,0.433-2.419,0.576-2.401
						c0.142,0.019,0.116,1.123-0.06,2.468C279.056,416.448,278.798,417.523,278.655,417.504z"/>
				</g>
				<g>
					<path style="fill:#455A64;" d="M277.444,427.25c-0.143-0.017-0.125-1.123,0.039-2.468c0.165-1.346,0.413-2.423,0.556-2.406
						c0.143,0.017,0.125,1.123-0.039,2.469C277.836,426.19,277.587,427.267,277.444,427.25z"/>
				</g>
				<g>
					<path style="fill:#455A64;" d="M276.584,434.615c-0.143-0.016-0.195-0.586-0.116-1.272c0.079-0.686,0.258-1.229,0.401-1.212
						c0.143,0.016,0.195,0.586,0.116,1.272C276.906,434.089,276.727,434.631,276.584,434.615z"/>
				</g>
			</g>
			<g>
				<path style="fill:#455A64;" d="M331.858,362.036c-0.02,0.147-2.729-0.106-6.073-0.317c-3.345-0.218-6.063-0.312-6.064-0.461
					c-0.002-0.139,2.732-0.278,6.097-0.059C329.184,361.412,331.878,361.899,331.858,362.036z"/>
			</g>
			<g>
				<path style="fill:#455A64;" d="M330.712,359.498c0.018,0.138-2.257,0.541-5.098,0.643c-2.842,0.109-5.14-0.125-5.132-0.263
					c0.007-0.149,2.297-0.149,5.113-0.257C328.41,359.52,330.694,359.35,330.712,359.498z"/>
			</g>
			<g>
				<path style="fill:#455A64;" d="M277.8,366.801c-0.124,0.074-1.311-1.691-2.653-3.94c-1.342-2.251-2.329-4.134-2.206-4.208
					c0.124-0.074,1.311,1.69,2.653,3.941C276.936,364.843,277.924,366.727,277.8,366.801z"/>
			</g>
			<g>
				<path style="fill:#455A64;" d="M328.393,284.724c0.034,0.006,0.026,0.256-0.035,0.7c-0.065,0.444-0.166,1.088-0.407,1.865
					c-0.24,0.768-0.622,1.707-1.413,2.505c-0.777,0.812-2.04,1.282-3.308,1.226c-1.274-0.033-2.421-0.406-3.409-0.812
					c-0.991-0.416-1.834-0.93-2.441-1.485c-1.253-1.123-1.384-2.251-1.332-2.233c0.087-0.044,0.338,0.978,1.571,1.953
					c0.602,0.488,1.42,0.944,2.383,1.32c0.963,0.369,2.07,0.708,3.24,0.736c1.169,0.045,2.25-0.349,2.963-1.05
					c0.722-0.69,1.125-1.552,1.398-2.28C328.131,285.69,328.304,284.703,328.393,284.724z"/>
			</g>
			<g>
				<path style="fill:#455A64;" d="M299.124,298.947c-0.03,0.023-0.173-0.119-0.424-0.367c-0.226-0.242-0.706-0.522-1.109-1.052
					c-0.389-0.51-0.944-1.044-1.274-1.94c-0.217-0.906-0.16-1.834-0.123-2.819c0.11-1.962,0.335-3.716,0.505-4.985
					c0.176-1.268,0.316-2.048,0.388-2.042c0.171,0.013-0.114,3.179-0.372,7.054c-0.042,0.957-0.093,1.913,0.064,2.661
					c0.229,0.714,0.754,1.326,1.103,1.846c0.338,0.526,0.752,0.822,0.97,1.144C299.065,298.745,299.15,298.926,299.124,298.947z"/>
			</g>
		</g>
	</g>
</g>
</svg>
